<svg width="1920" height="1080" viewBox="0 0 1920 1080" fill="none" xmlns="http://www.w3.org/2000/svg">
<g clip-path="url(#clip0_1213_15668)">
<rect width="1920" height="1080" fill="url(#paint0_linear_1213_15668)"/>
<path d="M1433.23 772.021C1410.81 776.337 1282.4 787.914 1261.33 791.292L1222.02 805.497L1212 867.992H1644L1620.54 797.897C1600.76 795.363 1572.98 789.037 1560.42 785.896C1541.92 781.271 1520.33 773.563 1501.83 773.563C1483.33 773.563 1484.1 776.646 1466.38 773.563C1448.65 770.48 1453.27 768.162 1433.23 772.021Z" fill="#91C2A6"/>
<path d="M1822.5 823.5L1640.5 798.5L1614.5 797L1632 821L1822.5 823.5Z" fill="#91C2A6"/>
<path fill-rule="evenodd" clip-rule="evenodd" d="M2016.08 233.711H1689C1692.16 222.579 1707.91 214.12 1726.86 214.12C1734.27 214.12 1741.19 215.414 1747.06 217.655C1749.26 211.976 1754.96 207.933 1761.64 207.933C1764.79 207.933 1767.73 208.836 1770.18 210.388C1775.84 199.838 1788.73 192.466 1803.73 192.466C1821.98 192.466 1837.11 203.376 1839.89 217.646C1842.36 215.446 1845.55 214.12 1849.04 214.12C1851.54 214.12 1853.89 214.802 1855.93 216C1855.91 215.547 1855.9 215.092 1855.9 214.635C1855.9 193.85 1874.34 177 1897.08 177C1908.94 177 1919.63 181.581 1927.15 188.912C1932.25 184.676 1938.64 182.155 1945.59 182.155C1962.2 182.155 1975.68 196.58 1975.79 214.419C1980.82 215.531 1984.85 219.638 1986.24 224.956C1989.35 223.311 1992.97 222.368 1996.84 222.368C2005.42 222.368 2012.81 227.029 2016.08 233.711Z" fill="url(#paint1_linear_1213_15668)"/>
<path d="M553.197 794.077C591.976 808.4 807.893 842.026 920 858.9V962L-12 933.601V770H10.9877C17.4842 770 124.927 782.347 141.917 782.347C158.908 782.347 240.864 790.99 259.854 790.373C275.046 789.879 350.805 791.608 384.287 790.373C409.607 787.08 463.145 785.187 476.738 786.669C490.331 788.15 539.537 792.019 553.197 794.077Z" fill="#91C2A6"/>
<path d="M1860.39 824.5L1925 822V1080H1627L1611.5 812.5C1614.43 812.607 1642.1 811.326 1645.5 811.5C1705.62 814.575 1832.87 824.879 1860.39 824.5Z" fill="url(#paint2_linear_1213_15668)"/>
<path d="M257 858.002C339 853.502 535.5 872.503 658 865.003C752.662 859.207 962.867 831.842 1066 805.002C1069.64 804.056 1094 796 1096.5 795C1099 794 1101 1087.5 1101 1087.5L0 1097V869.002C53.5 862.002 191.4 861.602 257 858.002Z" fill="url(#paint3_linear_1213_15668)"/>
<path d="M1095.77 795.377C1085.29 799.435 1082.41 814.267 1058 823.002V2239.15H1659.25L1657 812.5C1657 812.5 1585.25 803.753 1559.81 803.753C1534.38 803.753 1482.73 809.252 1433.4 803.753C1409.77 801.12 1390.23 796.99 1374.04 790.228C1357.85 783.465 1336.27 779.189 1330.88 779.238C1326.06 779.282 1262.27 775.335 1213.71 764.544C1198.08 761.071 1170.54 764.543 1161.29 764.543C1152.04 764.543 1108.88 790.305 1095.77 795.377Z" fill="url(#paint4_linear_1213_15668)"/>
<path fill-rule="evenodd" clip-rule="evenodd" d="M802.321 301.972H492C495.001 289.807 509.941 280.563 527.919 280.563C534.947 280.563 541.511 281.976 547.079 284.424C549.173 278.22 554.576 273.803 560.911 273.803C563.905 273.803 566.69 274.789 569.017 276.484C574.382 264.956 586.615 256.901 600.848 256.901C618.164 256.901 632.52 268.823 635.149 284.418C637.493 282.013 640.523 280.563 643.832 280.563C646.205 280.563 648.434 281.308 650.37 282.617C650.353 282.122 650.345 281.625 650.345 281.126C650.345 258.413 667.838 240 689.418 240C700.67 240 710.811 245.006 717.941 253.018C722.781 248.388 728.85 245.634 735.438 245.634C751.199 245.634 763.988 261.396 764.091 280.888C768.865 282.101 772.691 286.589 774.016 292.401C776.966 290.605 780.398 289.577 784.059 289.577C792.207 289.577 799.215 294.669 802.321 301.972Z" fill="url(#paint5_linear_1213_15668)"/>
<path fill-rule="evenodd" clip-rule="evenodd" d="M637 511.405H1228.42C1222.5 495.228 1209.15 483.945 1193.62 483.945C1186.64 483.945 1180.1 486.224 1174.48 490.203C1173.33 484.337 1171.19 479.08 1168.34 474.841C1168.46 472.977 1168.51 471.095 1168.51 469.196C1168.51 428.219 1141.03 395 1107.13 395C1089.43 395 1073.48 404.056 1062.28 418.545C1049.23 406.658 1032.22 399.468 1013.62 399.468C975.316 399.468 943.768 429.948 939.607 469.154C935.744 465.866 931.217 463.974 926.377 463.974C920.068 463.974 914.292 467.188 909.824 472.519C904.815 437.965 877.454 411.55 844.451 411.55C817.324 411.55 794.009 429.396 783.785 454.94C779.35 451.182 774.04 448.996 768.333 448.996C756.259 448.996 745.962 458.783 741.971 472.527C731.36 467.104 718.85 463.974 705.455 463.974C671.193 463.974 642.721 484.455 637 511.405Z" fill="url(#paint6_linear_1213_15668)"/>
<path d="M90 110.399C90 98.5806 99.5807 89 111.399 89H161.063C172.881 89 182.462 98.5807 182.462 110.399V160.063C182.462 171.881 172.881 181.462 161.063 181.462H111.399C99.5806 181.462 90 171.881 90 160.063V110.399Z" fill="url(#paint7_linear_1213_15668)"/>
<circle cx="153.738" cy="129.995" r="8.50374" fill="#FFC736"/>
<path d="M109.52 140.3C112.291 134.381 116.865 123.444 118.805 128.087C118.805 128.087 119.219 143.312 123.654 141.673C128.088 140.034 130.028 127.469 134.74 136.21C139.452 144.951 139.619 132.713 148.972 136.509C153.683 138.421 154.232 137.359 163.378 136.812" stroke="white" stroke-width="6.63916" stroke-linecap="round"/>
<circle cx="231.657" cy="131.839" r="7.2394" fill="#FFC736"/>
<path d="M216.714 117.773C214.713 117.773 213.773 116.139 213.773 114.22C213.773 112.3 214.713 110.708 216.714 110.708H227.618V107.481C227.618 105.072 229.66 103.969 231.702 103.969C233.745 103.969 235.787 105.072 235.787 107.481V110.708H246.078C248.08 110.708 249.019 112.341 249.019 114.22C249.019 116.099 248.08 117.773 246.078 117.773H216.714ZM246.201 131.618C246.201 138.479 240.728 142.727 231.825 142.727C222.922 142.727 217.449 138.643 217.449 131.618C217.449 124.593 222.922 120.509 231.825 120.509C240.728 120.509 246.201 124.757 246.201 131.618ZM228.231 164.29C224.147 164.29 222.677 162.984 222.677 158.859V148.771C222.677 146.361 224.678 145.259 226.761 145.259C228.844 145.259 230.845 146.361 230.845 148.771V155.428C230.845 156.572 231.253 156.939 232.356 156.939H259.638C261.639 156.939 262.578 158.573 262.578 160.533C262.578 162.493 261.639 164.086 259.638 164.086L228.231 164.29ZM238.686 131.618C238.686 128.923 236.481 126.921 231.825 126.921C227.169 126.921 224.964 128.923 224.964 131.618C224.964 134.313 227.169 136.315 231.825 136.315C236.481 136.315 238.686 134.313 238.686 131.618ZM261.353 121.163H267.561C269.603 121.163 270.501 122.796 270.501 124.757C270.501 126.717 269.603 128.351 267.561 128.351H261.353V145.79C261.345 146.3 261.23 146.804 261.015 147.267C260.8 147.73 260.489 148.143 260.104 148.478C259.719 148.813 259.267 149.064 258.779 149.213C258.29 149.362 257.776 149.406 257.269 149.343C255.104 149.343 253.185 148.24 253.185 145.79V107.604C253.185 105.194 255.227 104.091 257.269 104.091C257.772 104.029 258.283 104.072 258.769 104.218C259.255 104.365 259.705 104.611 260.089 104.942C260.474 105.273 260.785 105.681 261.003 106.139C261.22 106.598 261.34 107.096 261.353 107.604V121.163Z" fill="#383838" stroke="#383838" stroke-width="1.02102" stroke-miterlimit="10"/>
<path d="M295.157 140.194V136.11H274.451C272.572 136.11 271.633 134.599 271.633 132.721C271.633 130.842 272.572 129.372 274.451 129.372H324.113C326.032 129.372 326.931 130.883 326.931 132.721C326.931 134.558 326.032 136.11 324.113 136.11H303.407V140.194H314.27C318.354 140.194 319.825 141.501 319.825 145.585V150.364C319.825 154.448 318.436 155.796 314.27 155.796H287.724C287.591 155.775 287.454 155.785 287.326 155.827C287.197 155.869 287.08 155.941 286.985 156.036C286.889 156.132 286.818 156.249 286.776 156.377C286.734 156.506 286.723 156.642 286.744 156.776V157.96C286.723 158.094 286.734 158.23 286.776 158.359C286.818 158.487 286.889 158.604 286.985 158.699C287.08 158.795 287.197 158.867 287.326 158.908C287.454 158.95 287.591 158.961 287.724 158.94H318.436C318.829 158.954 319.214 159.05 319.568 159.221C319.922 159.393 320.235 159.636 320.489 159.936C320.743 160.236 320.931 160.586 321.042 160.963C321.153 161.34 321.183 161.736 321.132 162.126C321.132 163.841 320.274 165.352 318.436 165.352H284.13C280.046 165.352 278.576 164.045 278.576 159.92V155.101C278.576 151.017 279.964 149.669 284.13 149.669H310.676C310.81 149.69 310.946 149.679 311.075 149.638C311.203 149.596 311.32 149.524 311.416 149.429C311.511 149.333 311.583 149.216 311.625 149.088C311.667 148.959 311.678 148.823 311.657 148.689V147.587C311.676 147.452 311.664 147.314 311.622 147.184C311.581 147.054 311.51 146.936 311.415 146.837C311.321 146.739 311.205 146.663 311.077 146.616C310.949 146.569 310.812 146.552 310.676 146.566H281.149C279.311 146.566 278.453 145.095 278.453 143.38C278.402 142.99 278.432 142.594 278.543 142.217C278.654 141.84 278.842 141.49 279.096 141.19C279.35 140.89 279.663 140.647 280.017 140.475C280.37 140.304 280.756 140.208 281.149 140.194H295.157ZM281.067 112.219C279.147 112.219 278.249 110.707 278.249 108.788C278.249 106.868 279.147 105.48 281.067 105.48H317.538C319.416 105.48 320.356 106.991 320.356 108.788C320.356 110.585 319.416 112.219 317.538 112.219H303.529V112.668C303.529 114.506 304.918 115.608 308.839 116.752C312.759 117.895 316.598 119.366 320.029 120.346C320.446 120.505 320.825 120.749 321.143 121.062C321.46 121.376 321.709 121.752 321.874 122.166C322.039 122.581 322.117 123.025 322.101 123.471C322.086 123.917 321.978 124.354 321.785 124.757C321.635 125.189 321.399 125.587 321.092 125.928C320.785 126.268 320.414 126.543 319.999 126.737C319.584 126.931 319.134 127.04 318.676 127.058C318.219 127.076 317.762 127.001 317.333 126.839C314.475 126.064 310.717 124.797 307.246 123.613C301.692 121.734 299.935 120.428 299.364 118.876C298.833 120.55 297.036 121.939 291.195 123.817C287.724 125.002 284.007 126.227 281.108 127.044C280.677 127.203 280.218 127.273 279.759 127.25C279.3 127.227 278.851 127.11 278.438 126.908C278.025 126.705 277.658 126.421 277.359 126.072C277.06 125.724 276.835 125.318 276.697 124.879C276.49 124.47 276.371 124.022 276.348 123.564C276.325 123.106 276.399 122.648 276.564 122.221C276.73 121.793 276.984 121.405 277.309 121.082C277.635 120.759 278.024 120.508 278.453 120.346C281.843 119.366 285.314 118.263 289.603 116.752C293.891 115.241 294.912 114.301 294.912 112.668V112.219H281.067Z" fill="#383838" stroke="#383838" stroke-width="1.02102" stroke-miterlimit="10"/>
<path d="M331.359 126.717V109.646C331.359 107.236 333.401 106.134 335.443 106.134C337.485 106.134 339.527 107.236 339.527 109.646V123.491C339.527 124.634 339.936 125.002 341.039 125.002C347.865 125.055 354.688 124.646 361.459 123.777C363.501 123.491 364.644 124.961 364.849 126.84C365.053 128.718 364.399 130.556 362.521 130.924C353.995 131.918 345.414 132.355 336.832 132.231C332.748 132.149 331.359 130.842 331.359 126.717ZM366.727 148.24C367.871 148.24 368.238 147.832 368.238 146.729V145.79C368.238 144.687 367.871 144.279 366.727 144.279H340.467C338.588 144.279 337.731 142.727 337.731 140.971C337.731 139.214 338.588 137.703 340.467 137.703H370.852C374.936 137.703 376.407 139.01 376.407 143.135V149.139C376.407 153.223 375.059 154.57 370.852 154.57H347.532C346.43 154.57 346.021 154.938 346.021 156.082V156.939C346.021 158.042 346.43 158.45 347.532 158.45H374.977C376.897 158.45 377.713 160.002 377.713 161.758C377.713 163.515 376.897 165.026 374.977 165.026H343.407C339.323 165.026 337.853 163.719 337.853 159.635V153.59C337.853 149.506 339.242 148.199 343.407 148.199L366.727 148.24ZM382.655 116.099C384.738 116.099 385.637 117.732 385.637 119.693C385.637 121.653 384.738 123.368 382.655 123.368H376.488V131.781C376.488 132.892 376.047 133.956 375.262 134.741C374.477 135.527 373.412 135.968 372.302 135.968C371.192 135.968 370.127 135.527 369.342 134.741C368.557 133.956 368.116 132.892 368.116 131.781V107.645C368.116 105.235 370.158 104.132 372.2 104.132C374.242 104.132 376.284 105.235 376.284 107.645V116.099H382.655Z" fill="#383838" stroke="#383838" stroke-width="1.02102" stroke-miterlimit="10"/>
<path d="M403.213 144.156C402.088 142.713 401.039 141.214 400.068 139.664C398.87 137.899 397.96 135.955 397.372 133.905V133.905C397.005 135.711 396.268 137.421 395.208 138.928C394.105 140.644 393.002 142.277 391.491 144.36C391.196 144.734 390.826 145.043 390.406 145.268C389.985 145.492 389.523 145.628 389.048 145.666C388.573 145.705 388.095 145.645 387.644 145.49C387.193 145.336 386.779 145.09 386.427 144.769C386.037 144.493 385.707 144.142 385.454 143.736C385.201 143.331 385.032 142.879 384.956 142.408C384.88 141.936 384.899 141.455 385.011 140.99C385.123 140.526 385.327 140.089 385.61 139.704C387.162 137.581 388.918 134.967 390.225 132.843C392.573 129.205 393.702 124.914 393.452 120.591V110.708C393.72 109.891 394.24 109.179 394.937 108.675C395.633 108.17 396.471 107.899 397.332 107.899C398.192 107.899 399.03 108.17 399.726 108.675C400.423 109.179 400.943 109.891 401.211 110.708V120.591C401.076 123.841 401.676 127.08 402.968 130.066C403.455 131.209 404 132.327 404.601 133.415C405.54 134.967 405.949 134.967 406.847 133.415C407.448 132.327 407.993 131.209 408.481 130.066C409.772 127.08 410.373 123.841 410.237 120.591V110.708C410.496 109.875 411.014 109.147 411.715 108.631C412.417 108.114 413.266 107.835 414.137 107.835C415.009 107.835 415.858 108.114 416.559 108.631C417.261 109.147 417.779 109.875 418.038 110.708V120.591C417.8 124.907 418.913 129.19 421.223 132.843C422.53 134.967 424.286 137.581 425.675 139.459C425.947 139.835 426.14 140.262 426.244 140.714C426.348 141.166 426.361 141.634 426.281 142.091C426.201 142.548 426.03 142.984 425.779 143.374C425.527 143.763 425.2 144.099 424.817 144.36C424.469 144.681 424.058 144.926 423.61 145.08C423.163 145.234 422.688 145.294 422.216 145.255C421.744 145.217 421.286 145.081 420.869 144.857C420.452 144.633 420.086 144.324 419.794 143.952C418.487 142.155 417.384 140.521 416.241 138.806C415.199 137.338 414.475 135.669 414.117 133.905V133.905C413.529 135.955 412.619 137.899 411.422 139.664C410.465 141.223 409.415 142.723 408.277 144.156C408.045 144.63 407.685 145.03 407.237 145.31C406.79 145.589 406.272 145.737 405.745 145.737C405.217 145.737 404.7 145.589 404.252 145.31C403.804 145.03 403.444 144.63 403.213 144.156V144.156Z" fill="#383838" stroke="#383838" stroke-width="1.02102" stroke-miterlimit="10"/>
<path d="M429.642 108.142C435.575 110.77 446.527 115.081 441.958 117.104C441.958 117.104 426.854 117.833 428.574 122.201C430.293 126.568 442.807 128.232 434.228 133.091C425.65 137.95 437.801 137.861 434.228 147.224C432.429 151.941 433.495 152.462 434.228 161.53" stroke="#383838" stroke-width="7.70824" stroke-linecap="round"/>
</g>
<defs>
<linearGradient id="paint0_linear_1213_15668" x1="960" y1="0" x2="960" y2="1080" gradientUnits="userSpaceOnUse">
<stop stop-color="#D7ECFF"/>
<stop offset="1" stop-color="#E6F3FF"/>
</linearGradient>
<linearGradient id="paint1_linear_1213_15668" x1="1825.04" y1="199.518" x2="1829.02" y2="242.638" gradientUnits="userSpaceOnUse">
<stop offset="0.0828835" stop-color="white"/>
<stop offset="1" stop-color="#E0E0E0"/>
</linearGradient>
<linearGradient id="paint2_linear_1213_15668" x1="1768.25" y1="812.427" x2="1768.25" y2="1072.44" gradientUnits="userSpaceOnUse">
<stop stop-color="#6AA67A"/>
<stop offset="1" stop-color="#70BC8F"/>
</linearGradient>
<linearGradient id="paint3_linear_1213_15668" x1="550.5" y1="796.058" x2="550.5" y2="1088.5" gradientUnits="userSpaceOnUse">
<stop stop-color="#6AA67A"/>
<stop offset="1" stop-color="#70BC8F"/>
</linearGradient>
<linearGradient id="paint4_linear_1213_15668" x1="1358.63" y1="768.185" x2="1358.63" y2="1101.65" gradientUnits="userSpaceOnUse">
<stop stop-color="#6AA67A"/>
<stop offset="1" stop-color="#70BC8F"/>
</linearGradient>
<linearGradient id="paint5_linear_1213_15668" x1="621.069" y1="264.606" x2="626.066" y2="311.597" gradientUnits="userSpaceOnUse">
<stop offset="0.0828835" stop-color="white"/>
<stop offset="1" stop-color="#E0E0E0"/>
</linearGradient>
<linearGradient id="paint6_linear_1213_15668" x1="882.985" y1="436.339" x2="893.554" y2="530.624" gradientUnits="userSpaceOnUse">
<stop offset="0.0828835" stop-color="white"/>
<stop offset="1" stop-color="#E0E0E0"/>
</linearGradient>
<linearGradient id="paint7_linear_1213_15668" x1="101.054" y1="88.9646" x2="142.176" y2="140.698" gradientUnits="userSpaceOnUse">
<stop offset="0.0448467" stop-color="#68BEEF"/>
<stop offset="1" stop-color="#9BD6F8"/>
</linearGradient>
<clipPath id="clip0_1213_15668">
<rect width="1920" height="1080" fill="white"/>
</clipPath>
</defs>
</svg>
