<svg width="390" height="230" viewBox="0 0 390 230" fill="none" xmlns="http://www.w3.org/2000/svg">
<path fill-rule="evenodd" clip-rule="evenodd" d="M17.6544 26.642C19.9355 24.1292 21.8404 22.0306 24.5 21.0012C27.7335 19.7497 33.789 16.556 40.3818 13.079C51.1195 7.41593 63.2825 1.00118 67 1.00118C68.614 1.00118 71.0865 0.838171 74.0362 0.643701C82.0515 0.115253 93.5899 -0.64548 101 1.00121C132.5 8.00126 173.874 10.5612 177 10.5329C180.5 10.5012 194.5 13.2745 205 17.6612C215.5 22.0478 228.174 24.7263 243.5 26.4345C266.497 28.9977 290.268 27.8768 307.948 27.0432C314.869 26.7168 320.858 26.4345 325.5 26.4345H390V230H0V38.9202C9.64066 35.4702 14.1033 30.554 17.6544 26.642Z" fill="url(#paint0_linear_1108_13676)"/>
<defs>
<linearGradient id="paint0_linear_1108_13676" x1="195" y1="0.807948" x2="195" y2="52.7652" gradientUnits="userSpaceOnUse">
<stop stop-color="#6E9679"/>
<stop offset="1" stop-color="#82B195"/>
</linearGradient>
</defs>
</svg>
