<svg width="518" height="262" viewBox="0 0 518 262" fill="none" xmlns="http://www.w3.org/2000/svg">
<path fill-rule="evenodd" clip-rule="evenodd" d="M17.6544 26.6421C19.9355 24.1292 21.8404 22.0307 24.5 21.0013C27.7335 19.7497 33.789 16.556 40.3818 13.079C51.1195 7.41597 63.2825 1.00122 67 1.00122C68.614 1.00122 71.0865 0.838212 74.0362 0.643742C82.0515 0.115294 93.5899 -0.645439 101 1.00125C132.5 8.0013 173.874 10.5612 177 10.5329C180.5 10.5012 194.5 13.2746 205 17.6612C215.5 22.0479 228.174 24.7263 243.5 26.4345C266.497 28.9977 290.268 27.8769 307.948 27.0432C314.869 26.7169 320.858 26.4345 325.5 26.4345L518 26.4345V262H0V38.9202C9.64066 35.4702 14.1033 30.554 17.6544 26.6421Z" fill="url(#paint0_linear_1403_18069)"/>
<defs>
<linearGradient id="paint0_linear_1403_18069" x1="259" y1="0.920358" x2="259" y2="60.1064" gradientUnits="userSpaceOnUse">
<stop stop-color="#6E9679"/>
<stop offset="1" stop-color="#82B195"/>
</linearGradient>
</defs>
</svg>
