<svg width="409" height="132" viewBox="0 0 409 132" fill="none" xmlns="http://www.w3.org/2000/svg">
<path opacity="0.6" d="M27.432 77C12.2817 77 0 64.7569 0 49.6542C0 34.5515 12.2817 22.3084 27.432 22.3084C30.717 22.3084 33.8672 22.884 36.7865 23.9396C42.5464 9.89531 56.3891 0 72.5503 0C93.8802 0 111.172 17.237 111.172 38.5C111.172 39.4367 111.138 40.3656 111.072 41.2855C117.522 44.2462 122 50.7467 122 58.2897C122 68.6231 113.597 77 103.231 77H27.432Z" fill="url(#paint0_linear_1114_13665)"/>
<path opacity="0.6" d="M247.769 132C221.939 132 201 111.012 201 85.1215C201 59.2312 221.939 38.243 247.769 38.243C253.37 38.243 258.741 39.2298 263.718 41.0393C273.538 16.9634 297.139 0 324.692 0C361.058 0 390.538 29.5492 390.538 66C390.538 67.6057 390.481 69.1981 390.369 70.7751C401.366 75.8506 409 86.9943 409 99.9252C409 117.64 394.673 132 377 132H247.769Z" fill="url(#paint1_linear_1114_13665)"/>
<defs>
<linearGradient id="paint0_linear_1114_13665" x1="50.2704" y1="44.2552" x2="52.3641" y2="65.5408" gradientUnits="userSpaceOnUse">
<stop offset="0.0828835" stop-color="#5B7889"/>
<stop offset="1" stop-color="#6F8FA0"/>
</linearGradient>
<linearGradient id="paint1_linear_1114_13665" x1="286.707" y1="75.866" x2="290.315" y2="112.352" gradientUnits="userSpaceOnUse">
<stop offset="0.0828835" stop-color="#5B7889"/>
<stop offset="1" stop-color="#6F8FA0"/>
</linearGradient>
</defs>
</svg>
