<svg width="549" height="574" viewBox="0 0 549 574" fill="none" xmlns="http://www.w3.org/2000/svg">
<path d="M408.377 318.597C407.392 322.274 404.532 324.702 400.798 323.701C397.063 322.7 395.801 319.168 396.786 315.491C397.771 311.815 407.268 299.553 407.268 299.553C407.268 299.553 409.362 314.921 408.377 318.597Z" fill="url(#paint0_linear_1114_16036)"/>
<path opacity="0.4" d="M466.377 379.597C465.392 383.274 462.532 385.702 458.798 384.701C455.063 383.7 453.801 380.168 454.786 376.491C455.771 372.815 465.268 360.553 465.268 360.553C465.268 360.553 467.362 375.921 466.377 379.597Z" fill="url(#paint1_linear_1114_16036)"/>
<path opacity="0.4" d="M498.377 487.597C497.392 491.274 494.532 493.702 490.798 492.701C487.063 491.7 485.801 488.168 486.786 484.491C487.771 480.815 497.268 468.553 497.268 468.553C497.268 468.553 499.362 483.921 498.377 487.597Z" fill="url(#paint2_linear_1114_16036)"/>
<path d="M382.375 403.597C381.39 407.274 378.53 409.702 374.796 408.701C371.062 407.7 369.799 404.168 370.784 400.491C371.769 396.815 381.266 384.553 381.266 384.553C381.266 384.553 383.36 399.921 382.375 403.597Z" fill="url(#paint3_linear_1114_16036)"/>
<path d="M432.375 484.597C431.39 488.274 428.53 490.702 424.796 489.701C421.062 488.7 419.799 485.168 420.784 481.491C421.769 477.815 431.266 465.553 431.266 465.553C431.266 465.553 433.36 480.921 432.375 484.597Z" fill="url(#paint4_linear_1114_16036)"/>
<path d="M400.375 539.597C399.39 543.274 396.53 545.702 392.796 544.701C389.062 543.7 387.799 540.168 388.784 536.491C389.769 532.815 399.266 520.553 399.266 520.553C399.266 520.553 401.36 535.921 400.375 539.597Z" fill="url(#paint5_linear_1114_16036)"/>
<path d="M144.375 560.597C143.39 564.274 140.53 566.702 136.796 565.701C133.062 564.7 131.799 561.168 132.784 557.491C133.769 553.815 143.266 541.553 143.266 541.553C143.266 541.553 145.36 556.921 144.375 560.597Z" fill="url(#paint6_linear_1114_16036)"/>
<path d="M444.3 558.399C443.183 562.564 442.032 563.805 439.899 563.233C437.765 562.661 437.388 561.012 438.504 556.846C439.62 552.681 466.816 462.776 466.816 462.776C466.816 462.776 445.416 554.234 444.3 558.399Z" fill="url(#paint7_linear_1114_16036)"/>
<path d="M417.3 425.399C416.183 429.564 415.032 430.805 412.899 430.233C410.765 429.661 410.388 428.012 411.504 423.846C412.62 419.681 439.816 329.776 439.816 329.776C439.816 329.776 418.416 421.234 417.3 425.399Z" fill="url(#paint8_linear_1114_16036)"/>
<path d="M134.3 412.399C133.183 416.564 132.032 417.805 129.899 417.233C127.765 416.661 127.388 415.012 128.504 410.846C129.62 406.681 156.816 316.776 156.816 316.776C156.816 316.776 135.416 408.234 134.3 412.399Z" fill="url(#paint9_linear_1114_16036)"/>
<path d="M97.2996 567.399C96.1835 571.564 95.0324 572.805 92.8986 572.233C90.7647 571.661 90.3879 570.012 91.504 565.846C92.6201 561.681 119.816 471.776 119.816 471.776C119.816 471.776 98.4156 563.234 97.2996 567.399Z" fill="url(#paint10_linear_1114_16036)"/>
<path d="M103.377 422.597C102.392 426.274 99.532 428.702 95.7977 427.701C92.0635 426.7 90.8008 423.168 91.7858 419.491C92.7709 415.815 102.268 403.553 102.268 403.553C102.268 403.553 104.362 418.921 103.377 422.597Z" fill="url(#paint11_linear_1114_16036)"/>
<path d="M162.377 487.597C161.392 491.274 158.532 493.702 154.798 492.701C151.063 491.7 149.801 488.168 150.786 484.491C151.771 480.815 161.268 468.553 161.268 468.553C161.268 468.553 163.362 483.921 162.377 487.597Z" fill="url(#paint12_linear_1114_16036)"/>
<path d="M180.377 379.597C179.392 383.274 176.532 385.702 172.798 384.701C169.063 383.7 167.801 380.168 168.786 376.491C169.771 372.815 179.268 360.553 179.268 360.553C179.268 360.553 181.362 375.921 180.377 379.597Z" fill="url(#paint13_linear_1114_16036)"/>
<path d="M122.377 318.597C121.392 322.274 118.532 324.702 114.798 323.701C111.063 322.7 109.801 319.168 110.786 315.491C111.771 311.815 121.268 299.553 121.268 299.553C121.268 299.553 123.362 314.921 122.377 318.597Z" fill="url(#paint14_linear_1114_16036)"/>
<path fill-rule="evenodd" clip-rule="evenodd" d="M356.963 266.154C333.403 282.452 304.817 292 274 292C243.405 292 215.009 282.59 191.547 266.505C171.687 280.663 147.325 289 121 289C54.1735 289 0 235.274 0 169C0 102.726 54.1735 49 121 49C134.507 49 147.497 51.1948 159.627 55.2445C186.373 21.5833 227.666 0 274 0C320.456 0 361.844 21.6973 388.584 55.5109C400.939 51.2912 414.2 49 428 49C494.826 49 549 102.726 549 169C549 235.274 494.826 289 428 289C401.458 289 376.912 280.525 356.963 266.154Z" fill="url(#paint15_linear_1114_16036)" fill-opacity="0.7"/>
<defs>
<linearGradient id="paint0_linear_1114_16036" x1="400.255" y1="324.289" x2="407.441" y2="296.104" gradientUnits="userSpaceOnUse">
<stop stop-color="#A5B4C9"/>
<stop offset="1" stop-color="#B6C2D3" stop-opacity="0.33"/>
</linearGradient>
<linearGradient id="paint1_linear_1114_16036" x1="458.255" y1="385.289" x2="465.441" y2="357.104" gradientUnits="userSpaceOnUse">
<stop stop-color="#A5B4C9"/>
<stop offset="1" stop-color="#B6C2D3" stop-opacity="0.33"/>
</linearGradient>
<linearGradient id="paint2_linear_1114_16036" x1="490.255" y1="493.289" x2="497.441" y2="465.104" gradientUnits="userSpaceOnUse">
<stop stop-color="#A5B4C9"/>
<stop offset="1" stop-color="#B6C2D3" stop-opacity="0.33"/>
</linearGradient>
<linearGradient id="paint3_linear_1114_16036" x1="374.253" y1="409.289" x2="381.439" y2="381.104" gradientUnits="userSpaceOnUse">
<stop stop-color="#A5B4C9"/>
<stop offset="1" stop-color="#B6C2D3" stop-opacity="0.33"/>
</linearGradient>
<linearGradient id="paint4_linear_1114_16036" x1="424.253" y1="490.289" x2="431.439" y2="462.104" gradientUnits="userSpaceOnUse">
<stop stop-color="#A5B4C9"/>
<stop offset="1" stop-color="#B6C2D3" stop-opacity="0.33"/>
</linearGradient>
<linearGradient id="paint5_linear_1114_16036" x1="392.253" y1="545.289" x2="399.439" y2="517.104" gradientUnits="userSpaceOnUse">
<stop stop-color="#A5B4C9"/>
<stop offset="1" stop-color="#B6C2D3" stop-opacity="0.33"/>
</linearGradient>
<linearGradient id="paint6_linear_1114_16036" x1="136.253" y1="566.289" x2="143.439" y2="538.104" gradientUnits="userSpaceOnUse">
<stop stop-color="#A5B4C9"/>
<stop offset="1" stop-color="#B6C2D3" stop-opacity="0.33"/>
</linearGradient>
<linearGradient id="paint7_linear_1114_16036" x1="438.956" y1="566.031" x2="458.273" y2="447.192" gradientUnits="userSpaceOnUse">
<stop stop-color="#A5B4C9"/>
<stop offset="1" stop-color="#B6C2D3" stop-opacity="0.33"/>
</linearGradient>
<linearGradient id="paint8_linear_1114_16036" x1="411.956" y1="433.031" x2="431.273" y2="314.192" gradientUnits="userSpaceOnUse">
<stop stop-color="#A5B4C9"/>
<stop offset="1" stop-color="#B6C2D3" stop-opacity="0.33"/>
</linearGradient>
<linearGradient id="paint9_linear_1114_16036" x1="128.956" y1="420.031" x2="148.273" y2="301.192" gradientUnits="userSpaceOnUse">
<stop stop-color="#A5B4C9"/>
<stop offset="1" stop-color="#B6C2D3" stop-opacity="0.33"/>
</linearGradient>
<linearGradient id="paint10_linear_1114_16036" x1="91.956" y1="575.031" x2="111.273" y2="456.192" gradientUnits="userSpaceOnUse">
<stop stop-color="#A5B4C9"/>
<stop offset="1" stop-color="#B6C2D3" stop-opacity="0.33"/>
</linearGradient>
<linearGradient id="paint11_linear_1114_16036" x1="95.2546" y1="428.289" x2="102.441" y2="400.104" gradientUnits="userSpaceOnUse">
<stop stop-color="#A5B4C9"/>
<stop offset="1" stop-color="#B6C2D3" stop-opacity="0.33"/>
</linearGradient>
<linearGradient id="paint12_linear_1114_16036" x1="154.255" y1="493.289" x2="161.441" y2="465.104" gradientUnits="userSpaceOnUse">
<stop stop-color="#A5B4C9"/>
<stop offset="1" stop-color="#B6C2D3" stop-opacity="0.33"/>
</linearGradient>
<linearGradient id="paint13_linear_1114_16036" x1="172.255" y1="385.289" x2="179.441" y2="357.104" gradientUnits="userSpaceOnUse">
<stop stop-color="#A5B4C9"/>
<stop offset="1" stop-color="#B6C2D3" stop-opacity="0.33"/>
</linearGradient>
<linearGradient id="paint14_linear_1114_16036" x1="114.255" y1="324.289" x2="121.441" y2="296.104" gradientUnits="userSpaceOnUse">
<stop stop-color="#A5B4C9"/>
<stop offset="1" stop-color="#B6C2D3" stop-opacity="0.33"/>
</linearGradient>
<linearGradient id="paint15_linear_1114_16036" x1="284" y1="104.5" x2="313.334" y2="305.213" gradientUnits="userSpaceOnUse">
<stop offset="0.530688" stop-color="#3B4E5F"/>
<stop offset="1" stop-color="#4B5E6F"/>
</linearGradient>
</defs>
</svg>
