<svg width="520" height="262" viewBox="0 0 520 262" fill="none" xmlns="http://www.w3.org/2000/svg">
<path fill-rule="evenodd" clip-rule="evenodd" d="M17.6543 26.6421C19.9355 24.1294 21.8398 22.0308 24.5 21.001C27.7344 19.7496 33.791 16.5552 40.3848 13.0777C51.1211 7.41509 63.2832 1.00103 67 1.00103C68.6133 1.00103 71.0859 0.837946 74.0352 0.64361C82.0508 0.11529 93.5898 -0.645453 101 1.00103C132.5 8.00152 173.875 10.5611 177 10.5328C180.5 10.501 194.5 13.2745 205 17.6612C215.5 22.0479 228.174 24.7261 243.5 26.4346C266.496 28.9976 290.268 27.877 307.947 27.0435C314.869 26.7169 320.857 26.4346 325.5 26.4346H520V262H0V38.9205C9.64062 35.4703 14.1016 30.5543 17.6543 26.6421Z" fill="url(#paint0_linear_1403_18070)"/>
<defs>
<linearGradient id="paint0_linear_1403_18070" x1="260" y1="0.920358" x2="260" y2="60.1064" gradientUnits="userSpaceOnUse">
<stop stop-color="#6AA67A"/>
<stop offset="1" stop-color="#70BC8F"/>
</linearGradient>
</defs>
</svg>
