<svg width="685" height="334" viewBox="0 0 685 334" fill="none" xmlns="http://www.w3.org/2000/svg">
<path opacity="0.6" d="M447.03 334C408.906 334 378 303.154 378 265.103C378 227.052 408.906 196.206 447.03 196.206C455.296 196.206 463.223 197.656 470.569 200.315C485.063 164.931 519.897 140 560.565 140C614.24 140 657.751 183.428 657.751 237C657.751 239.36 657.667 241.7 657.501 244.018C673.732 251.477 685 267.855 685 286.86C685 312.895 663.854 334 637.769 334H447.03Z" fill="url(#paint0_linear_1101_13669)"/>
<path opacity="0.4" d="M340.29 5.67561e-06C394.806 1.04416e-05 439 44.3615 439 99.0841C439 153.807 394.806 198.168 340.29 198.168C328.469 198.168 317.134 196.083 306.629 192.258C285.903 243.146 236.092 279 177.938 279C101.185 279 38.9645 216.544 38.9645 139.5C38.9645 136.106 39.0853 132.74 39.3227 129.407C16.1124 118.679 2.75189e-05 95.1257 2.99083e-05 67.7944C3.31815e-05 30.3525 30.238 -2.143e-05 67.5385 -1.81691e-05L340.29 5.67561e-06Z" fill="url(#paint1_linear_1101_13669)"/>
<defs>
<linearGradient id="paint0_linear_1101_13669" x1="493" y1="220" x2="464.794" y2="365.989" gradientUnits="userSpaceOnUse">
<stop stop-color="#38505F"/>
<stop offset="1" stop-color="#618498"/>
</linearGradient>
<linearGradient id="paint1_linear_1101_13669" x1="274.554" y1="163.948" x2="315.333" y2="-45.918" gradientUnits="userSpaceOnUse">
<stop stop-color="#38505F"/>
<stop offset="1" stop-color="#618498"/>
</linearGradient>
</defs>
</svg>
