<svg width="554" height="392" viewBox="0 0 554 392" fill="none" xmlns="http://www.w3.org/2000/svg">
<path fill-rule="evenodd" clip-rule="evenodd" d="M374.724 259.191C347.946 279.701 313.753 292 276.5 292C239.44 292 205.408 279.827 178.692 259.508C161.543 268.75 141.89 274 121 274C54.1735 274 0 220.274 0 154C0 87.7258 54.1735 34 121 34C137.103 34 152.471 37.1195 166.524 42.7825C194.665 16.3499 233.549 0 276.5 0C319.605 0 358.613 16.467 386.778 43.0665C401.019 37.2239 416.63 34 433 34C499.826 34 554 87.7258 554 154C554 220.274 499.826 274 433 274C411.873 274 392.01 268.63 374.724 259.191Z" fill="url(#paint0_linear_1114_13692)" fill-opacity="0.7"/>
<path d="M146 340.108C146 343.915 142.866 347 139 347C135.134 347 132 343.915 132 340.108C132 336.302 139 325 139 325C139 325 146 336.302 146 340.108Z" fill="#DEF2F9" fill-opacity="0.53"/>
<path d="M419 375.422C419 379.055 416.09 382 412.5 382C408.91 382 406 379.055 406 375.422C406 371.789 412.5 361 412.5 361C412.5 361 419 371.789 419 375.422Z" fill="#DEF2F9" fill-opacity="0.53"/>
<path d="M237 385.422C237 389.055 234.09 392 230.5 392C226.91 392 224 389.055 224 385.422C224 381.789 230.5 371 230.5 371C230.5 371 237 381.789 237 385.422Z" fill="#DEF2F9" fill-opacity="0.53"/>
<path d="M328 350.422C328 354.055 325.09 357 321.5 357C317.91 357 315 354.055 315 350.422C315 346.789 321.5 336 321.5 336C321.5 336 328 346.789 328 350.422Z" fill="#DEF2F9" fill-opacity="0.53"/>
<defs>
<linearGradient id="paint0_linear_1114_13692" x1="221" y1="197" x2="249.568" y2="323.159" gradientUnits="userSpaceOnUse">
<stop offset="0.0336513" stop-color="#577E9A"/>
<stop offset="0.784145" stop-color="#5F859A"/>
</linearGradient>
</defs>
</svg>
