<svg width="24" height="27" viewBox="0 0 24 27" fill="none" xmlns="http://www.w3.org/2000/svg">
<path d="M7.625 9.625C7.85706 9.625 8.07962 9.71719 8.24372 9.88128C8.40781 10.0454 8.5 10.2679 8.5 10.5V21C8.5 21.2321 8.40781 21.4546 8.24372 21.6187C8.07962 21.7828 7.85706 21.875 7.625 21.875C7.39294 21.875 7.17038 21.7828 7.00628 21.6187C6.84219 21.4546 6.75 21.2321 6.75 21V10.5C6.75 10.2679 6.84219 10.0454 7.00628 9.88128C7.17038 9.71719 7.39294 9.625 7.625 9.625ZM12 9.625C12.2321 9.625 12.4546 9.71719 12.6187 9.88128C12.7828 10.0454 12.875 10.2679 12.875 10.5V21C12.875 21.2321 12.7828 21.4546 12.6187 21.6187C12.4546 21.7828 12.2321 21.875 12 21.875C11.7679 21.875 11.5454 21.7828 11.3813 21.6187C11.2172 21.4546 11.125 21.2321 11.125 21V10.5C11.125 10.2679 11.2172 10.0454 11.3813 9.88128C11.5454 9.71719 11.7679 9.625 12 9.625ZM17.25 10.5C17.25 10.2679 17.1578 10.0454 16.9937 9.88128C16.8296 9.71719 16.6071 9.625 16.375 9.625C16.1429 9.625 15.9204 9.71719 15.7563 9.88128C15.5922 10.0454 15.5 10.2679 15.5 10.5V21C15.5 21.2321 15.5922 21.4546 15.7563 21.6187C15.9204 21.7828 16.1429 21.875 16.375 21.875C16.6071 21.875 16.8296 21.7828 16.9937 21.6187C17.1578 21.4546 17.25 21.2321 17.25 21V10.5Z" fill="white"/>
<path fill-rule="evenodd" clip-rule="evenodd" d="M23.375 5.25C23.375 5.71413 23.1906 6.15925 22.8624 6.48744C22.5342 6.81563 22.0891 7 21.625 7H20.75V22.75C20.75 23.6783 20.3813 24.5685 19.7249 25.2249C19.0685 25.8813 18.1783 26.25 17.25 26.25H6.75C5.82174 26.25 4.9315 25.8813 4.27513 25.2249C3.61875 24.5685 3.25 23.6783 3.25 22.75V7H2.375C1.91087 7 1.46575 6.81563 1.13756 6.48744C0.809374 6.15925 0.625 5.71413 0.625 5.25V3.5C0.625 3.03587 0.809374 2.59075 1.13756 2.26256C1.46575 1.93437 1.91087 1.75 2.375 1.75H8.5C8.5 1.28587 8.68437 0.840752 9.01256 0.512563C9.34075 0.184374 9.78587 0 10.25 0L13.75 0C14.2141 0 14.6592 0.184374 14.9874 0.512563C15.3156 0.840752 15.5 1.28587 15.5 1.75H21.625C22.0891 1.75 22.5342 1.93437 22.8624 2.26256C23.1906 2.59075 23.375 3.03587 23.375 3.5V5.25ZM5.2065 7L5 7.10325V22.75C5 23.2141 5.18437 23.6592 5.51256 23.9874C5.84075 24.3156 6.28587 24.5 6.75 24.5H17.25C17.7141 24.5 18.1592 24.3156 18.4874 23.9874C18.8156 23.6592 19 23.2141 19 22.75V7.10325L18.7935 7H5.2065ZM2.375 5.25V3.5H21.625V5.25H2.375Z" fill="white"/>
</svg>
