<svg width="101" height="57" viewBox="0 0 101 57" fill="none" xmlns="http://www.w3.org/2000/svg">
<path opacity="0.6" d="M27.2737 18.018L28.4526 18.3429L29.0083 17.2537C29.3905 16.5045 29.8857 15.6593 30.4927 14.7578L29.2485 13.92C30.2695 12.4036 31.5757 10.7592 33.1537 9.14979L34.2247 10.1999C35.5324 8.86626 37.0318 7.56092 38.7132 6.38403L37.853 5.15516C39.4834 4.01394 41.2803 2.98524 43.2369 2.15239L43.8244 3.53256C45.5561 2.79546 47.4161 2.22211 49.4002 1.87501L49.1418 0.397451C51.0807 0.0582613 53.1336 -0.0775122 55.2962 0.0434911L55.2124 1.54115C56.1584 1.59408 57.1286 1.69904 58.1225 1.86145C59.0804 2.01797 60.0023 2.21219 60.8894 2.44007L61.2626 0.987244C63.2759 1.50444 65.1256 2.18881 66.8216 3.00011L66.1743 4.35326C67.9416 5.1987 69.5323 6.1891 70.9596 7.2743L71.8675 6.08025C73.5085 7.32794 74.9444 8.69433 76.192 10.1103L75.0666 11.1019C76.3794 12.5918 77.4744 14.141 78.3724 15.6601L79.6637 14.8968C80.7761 16.7785 81.5993 18.6144 82.1708 20.2504L80.7547 20.7451C81.099 21.7305 81.3419 22.6262 81.4965 23.3931L81.7113 24.4582L82.7903 24.5862C83.5823 24.6801 84.4514 24.8161 85.3643 25.006L85.6697 23.5374C87.3345 23.8836 89.1387 24.4004 90.9051 25.1532L90.317 26.5331C91.8666 27.1935 93.3572 28.0358 94.6676 29.0996L95.613 27.935C97.0003 29.0613 98.2228 30.4284 99.151 32.0841L97.8425 32.8176C98.5802 34.1334 99.1166 35.6678 99.3579 37.4659L100.845 37.2664C101.064 38.9004 101.059 40.7153 100.778 42.7305L99.2928 42.5235C99.1797 43.3352 99.0183 44.1869 98.8034 45.0802C98.628 45.8092 98.3922 46.504 98.1028 47.1625L99.4761 47.7659C98.801 49.3026 97.8644 50.6681 96.7346 51.8352L95.6568 50.7919C94.6325 51.8499 93.4259 52.7307 92.0982 53.4053L92.7776 54.7426C91.3216 55.4822 89.7405 55.9947 88.1028 56.2525L87.8695 54.7708C87.1382 54.8859 86.3946 54.9449 85.6464 54.9449C84.7256 54.9449 83.7802 54.9479 82.8123 54.9535L82.8209 56.4534C81.0077 56.4639 79.114 56.4833 77.1553 56.5087L77.1358 55.0089C75.2976 55.0328 73.4027 55.0621 71.4641 55.0943L71.4891 56.5941C69.6374 56.6248 67.7451 56.6583 65.8232 56.6924L65.7966 55.1926L65.533 55.1973C63.7551 55.2288 61.953 55.2608 60.1348 55.2916L60.1602 56.7914C58.2856 56.8231 56.3938 56.8535 54.4944 56.8808L54.4728 55.381C52.5907 55.4081 50.7015 55.4322 48.8145 55.4514L48.8298 56.9513C46.9367 56.9707 45.0455 56.9852 43.1652 56.9932L43.1589 55.4932C41.2589 55.5012 39.3708 55.5025 37.5043 55.4952L37.4984 56.9952C35.5856 56.9878 33.6946 56.9714 31.836 56.9441L31.8581 55.4442C29.9369 55.416 28.0515 55.3761 26.2132 55.3223L26.1693 56.8217C24.2261 56.7648 22.3342 56.6925 20.5069 56.6023L20.5809 55.1041C19.6279 55.057 18.6931 55.0051 17.7787 54.9478C16.8293 54.8885 15.9277 54.7765 15.0725 54.6173L14.798 56.092C12.7527 55.7113 10.93 55.0737 9.32345 54.2284L10.0219 52.901C8.39219 52.0435 7.0118 50.9551 5.8669 49.6964L4.75728 50.7057C3.4457 49.2638 2.41353 47.6169 1.65067 45.8408L3.02891 45.2488C2.33291 43.6284 1.87586 41.8802 1.65503 40.0705L0.166071 40.2522C-0.0659883 38.3506 -0.0533712 36.398 0.194652 34.4641L1.68247 34.6549C1.9125 32.8613 2.35836 31.0851 3.01079 29.3907L1.61097 28.8517C2.30652 27.0453 3.22273 25.3241 4.35068 23.7551L5.56863 24.6306C6.61519 23.1748 7.85251 21.8671 9.26985 20.7648L8.349 19.5807C9.84366 18.4183 11.529 17.4619 13.3969 16.7724L13.9164 18.1796C15.5088 17.5918 17.2538 17.2116 19.1499 17.0889L19.053 15.592C20.8655 15.4747 22.7969 15.5772 24.8426 15.9337L24.5851 17.4114C25.4561 17.5632 26.3524 17.7641 27.2737 18.018Z" stroke="white" stroke-width="3" stroke-dasharray="6 6"/>
</svg>
