<svg width="101" height="57" viewBox="0 0 101 57" fill="none" xmlns="http://www.w3.org/2000/svg">
<path fill-rule="evenodd" clip-rule="evenodd" d="M24.6766 15.9336C25.5968 16.094 26.5401 16.3057 27.5061 16.5719C27.9182 15.7643 28.4447 14.8671 29.0824 13.92L31.5709 15.5956C30.9945 16.4515 30.5307 17.2447 30.1784 17.9353L29.0669 20.1138L26.7091 19.4641C25.8326 19.2225 24.9834 19.0323 24.1616 18.8891L24.6766 15.9336ZM32.9876 9.14975L35.1297 11.25C36.3793 9.9756 37.8089 8.73167 39.4073 7.61286L37.6869 5.15513C35.9226 6.3901 34.3533 7.75684 32.9876 9.14975ZM43.0708 2.15235L44.2458 4.91269C45.8788 4.21759 47.6287 3.67861 49.4926 3.35254L48.9757 0.397417C46.8713 0.765537 44.9012 1.37325 43.0708 2.15235ZM55.1301 0.043457L54.9625 3.03877C55.8552 3.08872 56.7725 3.18786 57.7146 3.34179C58.6287 3.49115 59.5067 3.67621 60.3501 3.89286L61.0966 0.98721C60.1658 0.7481 59.2 0.544722 58.1984 0.381052C57.1525 0.210158 56.1296 0.0993823 55.1301 0.043457ZM66.6555 3.00008L65.3609 5.70637C67.0324 6.50595 68.5362 7.44226 69.8857 8.46833L71.7014 6.08021C70.1963 4.93586 68.5187 3.89137 66.6555 3.00008ZM76.0259 10.1103L73.7751 12.0936C75.0207 13.5073 76.0612 14.979 76.9151 16.4234L79.4976 14.8967C78.5555 13.303 77.4058 11.6763 76.0259 10.1103ZM82.0047 20.2503L79.1726 21.2397C79.4966 22.1673 79.7204 22.9967 79.86 23.6895L80.2895 25.8197L82.4475 26.0757C83.1994 26.1649 84.0254 26.2942 84.8929 26.4745L85.5037 23.5374C84.5453 23.3381 83.6331 23.1953 82.8009 23.0966C82.6313 22.2558 82.3692 21.2937 82.0047 20.2503ZM90.739 25.1532L89.5629 27.913C91.0114 28.5303 92.3753 29.3055 93.5561 30.2641L95.4469 27.935C94.007 26.7661 92.3896 25.8566 90.739 25.1532ZM98.9849 32.0841L96.368 33.5511C97.0114 34.6987 97.4885 36.0513 97.7052 37.6654L100.679 37.2663C100.412 35.2841 99.8169 33.5682 98.9849 32.0841ZM100.612 42.7304L97.6411 42.3165C97.5352 43.077 97.3831 43.8806 97.1789 44.7293C97.0245 45.3714 96.8171 45.9817 96.5635 46.5591L99.3101 47.7659C99.635 47.0262 99.8994 46.2469 100.096 45.431C100.321 44.4931 100.492 43.5934 100.612 42.7304ZM96.5685 51.8352L94.413 49.7485C93.5087 50.6827 92.438 51.4657 91.2527 52.0679L92.6115 54.7425C94.0817 53.9957 95.4242 53.0171 96.5685 51.8352ZM87.9367 56.2525L87.4701 53.289C86.8153 53.3921 86.1497 53.4449 85.4803 53.4449C84.5563 53.4449 83.608 53.4479 82.6376 53.4535L82.6549 56.4534C83.6202 56.4479 84.5628 56.4449 85.4803 56.4449C86.3074 56.4449 87.1289 56.3797 87.9367 56.2525ZM76.9893 56.5087L76.9502 53.509C75.1096 53.5329 73.2127 53.5622 71.2731 53.5945L71.323 56.594C73.2605 56.5618 75.1534 56.5326 76.9893 56.5087ZM65.6571 56.6924L65.6039 53.6928L65.354 53.6973C63.5716 53.7289 61.7655 53.7609 59.9433 53.7917L59.9941 56.7913C61.8131 56.7606 63.6159 56.7286 65.3938 56.697C65.4816 56.6955 65.5694 56.6939 65.6571 56.6924ZM54.3283 56.8808L54.2851 53.8811C52.4047 53.9082 50.5176 53.9322 48.6331 53.9515L48.6637 56.9513C50.5533 56.932 52.4446 56.9079 54.3283 56.8808ZM42.9992 56.9931L42.9865 53.9931C41.09 54.0012 39.206 54.0025 37.344 53.9952L37.3324 56.9952C39.2035 57.0025 41.0957 57.0012 42.9992 56.9931ZM31.67 56.944L31.714 53.9444C29.7991 53.9162 27.9211 53.8764 26.091 53.8229L26.0033 56.8216C27.8497 56.8756 29.7425 56.9157 31.67 56.944ZM20.3409 56.6022L20.4889 53.6059C19.5418 53.5591 18.6137 53.5075 17.7063 53.4507C16.8151 53.395 15.9739 53.2903 15.181 53.1426L14.6319 56.092C15.5493 56.2627 16.5114 56.3819 17.519 56.4449C18.4405 56.5025 19.3818 56.5549 20.3409 56.6022ZM9.15738 54.2284L10.5543 51.5735C9.08112 50.7984 7.8394 49.8183 6.81046 48.6871L4.5912 50.7057C5.85205 52.0919 7.37111 53.2886 9.15738 54.2284ZM1.4846 45.8408L4.24109 44.6568C3.6053 43.1766 3.18278 41.5676 2.97791 39.8888L0 40.2522C0.236802 42.1927 0.728386 44.0802 1.4846 45.8408ZM0.0285816 34.4641L3.00421 34.8457C3.21913 33.1699 3.63578 31.5107 4.24453 29.9297L1.4449 28.8517C0.748805 30.6595 0.273716 32.5527 0.0285816 34.4641ZM4.18461 23.755L6.6205 25.5062C7.58856 24.1595 8.72746 22.9576 10.0246 21.9488L8.18293 19.5807C6.64541 20.7764 5.30968 22.19 4.18461 23.755ZM13.2309 16.7723L14.2697 19.5867C15.7237 19.05 17.3262 18.6992 19.0807 18.5857L18.8869 15.592C16.8492 15.7238 14.9616 16.1335 13.2309 16.7723Z" fill="#C1C1C1"/>
</svg>
