<?xml version="1.0" encoding="UTF-8"?>
<svg id="_레이어_2" data-name="레이어 2" xmlns="http://www.w3.org/2000/svg" xmlns:xlink="http://www.w3.org/1999/xlink" viewBox="0 0 98.69 90.67">
  <defs>
    <style>
      .cls-1 {
        fill: #fff;
      }

      .cls-2 {
        fill: #371d1e;
      }

      .cls-3 {
        clip-path: url(#clippath-1);
      }

      .cls-4 {
        clip-path: url(#clippath-4);
      }

      .cls-5 {
        clip-path: url(#clippath-7);
      }

      .cls-6 {
        clip-path: url(#clippath-10);
      }
    </style>
    <clipPath id="clippath-1">
      <path class="cls-1" d="M14.92,31.83h5.08s.03,13.95,0,17.2c0,2.37,5.28,2.4,5.28,.03l.02-17.05s1.7,.01,5.05,.01c3.16,0,3.16-4.97,0-4.97-3.56,0-15.45-.1-15.45-.1-2.98,0-2.97,4.87,0,4.87"/>
    </clipPath>
    <clipPath id="clippath-4">
      <path class="cls-1" d="M39.23,32.73l2.83,8.86h-5.89l3.06-8.86Zm-3.17-4.15c-1.25,2.75-5.76,15.75-7.26,19.2-1.08,2.49,3.59,4.52,4.67,2.03l1.02-3.55h9.29s-.32,.15,.91,3.4c1,2.64,5.83,.81,4.82-1.83-1.43-3.77-6.36-17.33-7.26-19.25-.41-.89-1.9-1.52-3.34-1.52-1.19,0-2.36,.44-2.85,1.52"/>
    </clipPath>
    <clipPath id="clippath-7">
      <path class="cls-1" d="M51.3,29.4c0,4.42,.03,18.66,.03,18.66,0,0-.41,2.83,2.02,2.83s7.81-.03,10.2-.03,2.37-5.08-.01-5.08-6.74-.03-6.74-.03c0,0,.02-13.17,.01-16.37,0-1.55-1.38-2.32-2.75-2.32s-2.75,.78-2.75,2.33"/>
    </clipPath>
    <clipPath id="clippath-10">
      <path class="cls-1" d="M66.57,28.69c.05,1.94-.06,19.45-.06,20.75,0,2.05,5.22,2.04,5.21,0,0-2.38,0-6.89,0-6.89l1.53-1.23,6.7,9.14c1.35,1.79,5.61-1.44,4.26-3.23l-7.11-9.37s4.83-5.22,6.73-7.11c1.11-1.1-2.33-4.57-3.44-3.46-1.08,1.07-8.64,8.64-8.64,8.64,0,0,.07-4.75,0-7.38-.03-1-1.25-1.48-2.5-1.48-1.34,0-2.71,.55-2.68,1.62"/>
    </clipPath>
  </defs>
  <g id="_레이어_1-2" data-name="레이어 1">
    <g>
      <path class="cls-2" d="M49.35,0C22.09,0,0,17.46,0,39.01c0,14.02,9.36,26.32,23.41,33.19-1.03,3.85-3.74,13.96-4.28,16.12-.67,2.68,.98,2.65,2.06,1.93,.85-.57,13.52-9.19,18.99-12.9,2.97,.44,6.03,.67,9.16,.67,27.25,0,49.35-17.46,49.35-39.01S76.6,0,49.35,0"/>
      <g>
        <g>
          <path class="cls-1" d="M14.92,31.83h5.08s.03,13.95,0,17.2c0,2.37,5.28,2.4,5.28,.03l.02-17.05s1.7,.01,5.05,.01c3.16,0,3.16-4.97,0-4.97-3.56,0-15.45-.1-15.45-.1-2.98,0-2.97,4.87,0,4.87"/>
          <g class="cls-3">
            <rect class="cls-1" x="11.93" y="26.96" width="21.59" height="24.48"/>
          </g>
        </g>
        <g>
          <path class="cls-1" d="M39.23,32.73l2.83,8.86h-5.89l3.06-8.86Zm-3.17-4.15c-1.25,2.75-5.76,15.75-7.26,19.2-1.08,2.49,3.59,4.52,4.67,2.03l1.02-3.55h9.29s-.32,.15,.91,3.4c1,2.64,5.83,.81,4.82-1.83-1.43-3.77-6.36-17.33-7.26-19.25-.41-.89-1.9-1.52-3.34-1.52-1.19,0-2.36,.44-2.85,1.52"/>
          <g class="cls-4">
            <rect class="cls-1" x="27.72" y="27.06" width="22.81" height="25.25"/>
          </g>
        </g>
        <g>
          <path class="cls-1" d="M51.3,29.4c0,4.42,.03,18.66,.03,18.66,0,0-.41,2.83,2.02,2.83s7.81-.03,10.2-.03,2.37-5.08-.01-5.08-6.74-.03-6.74-.03c0,0,.02-13.17,.01-16.37,0-1.55-1.38-2.32-2.75-2.32s-2.75,.78-2.75,2.33"/>
          <g class="cls-5">
            <rect class="cls-1" x="50.92" y="27.06" width="15.01" height="23.82"/>
          </g>
        </g>
        <g>
          <path class="cls-1" d="M66.57,28.69c.05,1.94-.06,19.45-.06,20.75,0,2.05,5.22,2.04,5.21,0,0-2.38,0-6.89,0-6.89l1.53-1.23,6.7,9.14c1.35,1.79,5.61-1.44,4.26-3.23l-7.11-9.37s4.83-5.22,6.73-7.11c1.11-1.1-2.33-4.57-3.44-3.46-1.08,1.07-8.64,8.64-8.64,8.64,0,0,.07-4.75,0-7.38-.03-1-1.25-1.48-2.5-1.48-1.34,0-2.71,.55-2.68,1.62"/>
          <g class="cls-6">
            <rect class="cls-1" x="66.51" y="26.19" width="19.06" height="26.05"/>
          </g>
        </g>
      </g>
    </g>
  </g>
</svg>