<svg width="19" height="17" viewBox="0 0 19 17" fill="none" xmlns="http://www.w3.org/2000/svg">
<rect x="1.5" y="4.59814" width="16" height="6.46199" fill="white"/>
<path d="M6.94141 7.92591H8.03573L7.48857 6.41846L6.94141 7.92591Z" fill="black"/>
<path d="M9.5 0C4.25308 0 0 3.25138 0 7.26269C0 9.856 1.77851 12.134 4.45312 13.4165C4.30788 13.9027 3.51774 16.5465 3.48668 16.7547C3.48668 16.7547 3.4675 16.9105 3.57163 16.9699C3.60648 16.9869 3.64454 16.9969 3.68349 16.9992C3.72244 17.0015 3.76147 16.996 3.79817 16.9832C4.09779 16.9424 7.26933 14.7858 7.8174 14.4147C8.3749 14.4897 8.93715 14.5267 9.5 14.5254C14.7469 14.5254 19 11.274 19 7.26269C19 3.25138 14.7469 0 9.5 0ZM4.79841 6.1352C4.78654 7.1626 4.80755 8.24315 4.79019 9.25461C4.78471 9.57789 4.59288 9.67443 4.33346 9.76654C4.30415 9.77659 4.27258 9.77873 4.24212 9.77274C3.94524 9.71606 3.70865 9.61332 3.70135 9.2555C3.68034 8.24492 3.70774 7.1626 3.69313 6.1352C3.44192 6.12546 3.08385 6.14494 2.85091 6.1352C2.52755 6.11483 2.30284 5.91555 2.31654 5.61884C2.33024 5.32213 2.49375 5.10868 2.85639 5.10337C3.71322 5.09097 4.77466 5.09097 5.63149 5.10337C5.99687 5.10868 6.15947 5.32302 6.17043 5.61884C6.18139 5.91466 5.96034 6.11483 5.63788 6.1352C5.40769 6.14494 5.05053 6.12546 4.79841 6.1352ZM9.40226 9.71783C9.29268 9.76618 9.17371 9.79125 9.05332 9.79134C8.82495 9.79134 8.65048 9.70277 8.59659 9.55663L8.32255 8.86756H6.65457L6.38053 9.55663C6.32755 9.701 6.15308 9.79134 5.9238 9.79134C5.80369 9.79134 5.68499 9.76627 5.57577 9.71783C5.42413 9.65052 5.27889 9.46452 5.44514 8.96322L6.75962 5.61707C6.81474 5.46967 6.91347 5.34132 7.04345 5.24805C7.17343 5.15479 7.3289 5.10077 7.49038 5.09274C7.65175 5.10163 7.80691 5.15609 7.93676 5.24941C8.0666 5.34273 8.16546 5.47084 8.22115 5.61795L9.53106 8.96233C9.69822 9.46452 9.55298 9.65406 9.40226 9.71783ZM12.1719 9.71783H10.4135C10.2773 9.72044 10.1456 9.67066 10.0471 9.57938C9.94872 9.48809 9.89157 9.36272 9.88822 9.2307V5.62415C9.89406 5.48407 9.95556 5.35161 10.0598 5.25449C10.1641 5.15738 10.3031 5.10315 10.4477 5.10315C10.5923 5.10315 10.7313 5.15738 10.8356 5.25449C10.9399 5.35161 11.0014 5.48407 11.0072 5.62415V8.74622H12.1719C12.2404 8.74221 12.309 8.75184 12.3736 8.77451C12.4381 8.79718 12.4972 8.83241 12.5472 8.87804C12.5972 8.92366 12.637 8.97872 12.6642 9.03983C12.6915 9.10093 12.7055 9.16679 12.7055 9.23335C12.7055 9.29992 12.6915 9.36578 12.6642 9.42688C12.637 9.48799 12.5972 9.54305 12.5472 9.58867C12.4972 9.6343 12.4381 9.66953 12.3736 9.6922C12.309 9.71487 12.2404 9.72449 12.1719 9.72049V9.71783ZM16.4651 9.31749C16.4509 9.42232 16.4047 9.52064 16.3325 9.59988C16.2603 9.67912 16.1653 9.73566 16.0598 9.76229C15.9543 9.78892 15.8429 9.78442 15.7401 9.74936C15.6372 9.7143 15.5474 9.65028 15.4823 9.56549L14.197 7.91544L14.007 8.09967V9.25904C14.007 9.39998 13.9493 9.53515 13.8465 9.63481C13.7437 9.73447 13.6043 9.79045 13.4589 9.79045C13.3136 9.79045 13.1742 9.73447 13.0714 9.63481C12.9686 9.53515 12.9109 9.39998 12.9109 9.25904V5.6277C12.9109 5.48676 12.9686 5.35159 13.0714 5.25193C13.1742 5.15227 13.3136 5.09628 13.4589 5.09628C13.6043 5.09628 13.7437 5.15227 13.8465 5.25193C13.9493 5.35159 14.007 5.48676 14.007 5.6277V6.7667L15.5362 5.28405C15.5762 5.24567 15.6237 5.21541 15.6759 5.19503C15.7282 5.17465 15.784 5.16457 15.8403 5.16536C15.9772 5.16885 16.1079 5.22122 16.2074 5.31244C16.3069 5.40365 16.3681 5.52728 16.3793 5.65958C16.3842 5.71862 16.3761 5.778 16.3554 5.83374C16.3348 5.88949 16.3021 5.94033 16.2596 5.98286L15.0082 7.1936L16.3574 8.9269C16.4447 9.03933 16.4825 9.18075 16.4624 9.32015L16.4651 9.31749Z" fill="black"/>
</svg>
