<svg width="22" height="20" viewBox="0 0 22 20" fill="none" xmlns="http://www.w3.org/2000/svg">
<rect x="1.73633" y="5.40918" width="18.5263" height="7.60234" fill="white"/>
<path d="M8.03906 9.32474H9.30618L8.67262 7.55127L8.03906 9.32474Z" fill="black"/>
<path d="M11 0C4.92462 0 0 3.82515 0 8.54434C0 11.5953 2.05933 14.2753 5.15625 15.7841C4.98808 16.3562 4.07317 19.4665 4.03721 19.7114C4.03721 19.7114 4.015 19.8948 4.13558 19.9646C4.17592 19.9846 4.21999 19.9963 4.26509 19.999C4.3102 20.0017 4.35538 19.9953 4.39788 19.9802C4.74481 19.9323 8.41712 17.395 9.05173 16.9584C9.69726 17.0467 10.3483 17.0903 11 17.0887C17.0754 17.0887 22 13.2635 22 8.54434C22 3.82515 17.0754 0 11 0ZM5.55606 7.21788C5.54231 8.42659 5.56663 9.69782 5.54654 10.8878C5.54019 11.2681 5.31808 11.3817 5.01769 11.49C4.98376 11.5019 4.9472 11.5044 4.91192 11.4973C4.56817 11.4307 4.29423 11.3098 4.28577 10.8888C4.26144 9.69991 4.29317 8.42659 4.27625 7.21788C3.98538 7.20642 3.57077 7.22934 3.30106 7.21788C2.92663 7.19391 2.66644 6.95947 2.68231 6.6104C2.69817 6.26133 2.8875 6.01021 3.3074 6.00396C4.29952 5.98937 5.52856 5.98937 6.52067 6.00396C6.94375 6.01021 7.13202 6.26237 7.14471 6.6104C7.1574 6.95842 6.90144 7.19391 6.52808 7.21788C6.26154 7.22934 5.84798 7.20642 5.55606 7.21788ZM10.8868 11.4327C10.7599 11.4896 10.6222 11.5191 10.4828 11.5192C10.2184 11.5192 10.0163 11.415 9.95394 11.2431L9.63663 10.4324H7.70529L7.38798 11.2431C7.32663 11.4129 7.12462 11.5192 6.85913 11.5192C6.72006 11.5192 6.58262 11.4897 6.45615 11.4327C6.28058 11.3535 6.1124 11.1347 6.3049 10.545L7.82692 6.60831C7.89075 6.43491 8.00507 6.2839 8.15558 6.17418C8.30608 6.06446 8.48609 6.0009 8.67308 5.99146C8.85992 6.00191 9.03958 6.06598 9.18993 6.17577C9.34028 6.28556 9.45474 6.43628 9.51923 6.60936L11.036 10.5439C11.2295 11.1347 11.0613 11.3577 10.8868 11.4327ZM14.0938 11.4327H12.0577C11.9 11.4358 11.7475 11.3773 11.6335 11.2699C11.5196 11.1625 11.4534 11.015 11.4495 10.8596V6.61665C11.4563 6.45185 11.5275 6.29601 11.6482 6.18176C11.769 6.06751 11.9299 6.0037 12.0974 6.0037C12.2648 6.0037 12.4257 6.06751 12.5465 6.18176C12.6672 6.29601 12.7384 6.45185 12.7452 6.61665V10.2897H14.0938C14.1731 10.285 14.2526 10.2963 14.3273 10.323C14.4021 10.3496 14.4705 10.3911 14.5283 10.4447C14.5862 10.4984 14.6323 10.5632 14.6639 10.6351C14.6954 10.707 14.7116 10.7845 14.7116 10.8628C14.7116 10.9411 14.6954 11.0186 14.6639 11.0904C14.6323 11.1623 14.5862 11.2271 14.5283 11.2808C14.4705 11.3345 14.4021 11.3759 14.3273 11.4026C14.2526 11.4293 14.1731 11.4406 14.0938 11.4359V11.4327ZM19.0649 10.9618C19.0484 11.0851 18.9949 11.2008 18.9113 11.294C18.8277 11.3872 18.7178 11.4537 18.5956 11.4851C18.4734 11.5164 18.3444 11.5111 18.2253 11.4698C18.1062 11.4286 18.0023 11.3533 17.9268 11.2535L16.4387 9.31229L16.2187 9.52902V10.893C16.2187 11.0588 16.1518 11.2178 16.0328 11.3351C15.9138 11.4523 15.7523 11.5182 15.584 11.5182C15.4157 11.5182 15.2543 11.4523 15.1353 11.3351C15.0163 11.2178 14.9494 11.0588 14.9494 10.893V6.62082C14.9494 6.45501 15.0163 6.29599 15.1353 6.17874C15.2543 6.06149 15.4157 5.99562 15.584 5.99562C15.7523 5.99562 15.9138 6.06149 16.0328 6.17874C16.1518 6.29599 16.2187 6.45501 16.2187 6.62082V7.96082L17.9892 6.21653C18.0356 6.17138 18.0906 6.13577 18.1511 6.1118C18.2115 6.08783 18.2763 6.07596 18.3414 6.0769C18.4999 6.081 18.6513 6.14262 18.7664 6.24993C18.8816 6.35724 18.9525 6.50268 18.9655 6.65833C18.9712 6.72779 18.9618 6.79764 18.9379 6.86323C18.914 6.92882 18.8762 6.98862 18.8269 7.03866L17.3779 8.46306L18.9401 10.5022C19.0412 10.6345 19.085 10.8009 19.0617 10.9649L19.0649 10.9618Z" fill="black"/>
</svg>
