<svg width="17" height="17" viewBox="0 0 17 17" fill="none" xmlns="http://www.w3.org/2000/svg">
<path d="M11.5003 2.38357C9.01525 -0.10148 4.98515 -0.101481 2.5001 2.38357C0.0150506 4.86862 0.0150506 8.89872 2.5001 11.3838C4.70153 13.5852 8.11577 13.8337 10.5927 12.1347L13.6909 15.6002C14.2176 16.1918 15.1333 16.2161 15.6925 15.657L15.7735 15.5759C16.3326 15.0168 16.3083 14.1011 15.7168 13.5744L12.2512 10.4762C13.9529 7.99654 13.7017 4.585 11.5003 2.38357ZM9.95525 9.83871C8.32376 11.4702 5.67664 11.4702 4.04515 9.83871C2.41366 8.20723 2.41366 5.56011 4.04515 3.92862C5.67664 2.29713 8.32376 2.29713 9.95525 3.92862C11.5894 5.56281 11.5867 8.20723 9.95525 9.83871Z" fill="#DBDBDB"/>
</svg>
