<svg width="110" height="31" viewBox="0 0 110 31" fill="none" xmlns="http://www.w3.org/2000/svg">
<g clip-path="url(#clip0_674_8210)">
<circle cx="9.03934" cy="14.2715" r="3.55887" fill="#FFC736"/>
<path d="M1.69165 7.35665C0.707871 7.35665 0.246094 6.55356 0.246094 5.60993C0.246094 4.6663 0.707871 3.88329 1.69165 3.88329H7.05225V2.29719C7.05225 1.11264 8.05611 0.570557 9.05997 0.570557C10.0638 0.570557 11.0677 1.11264 11.0677 2.29719V3.88329H16.1271C17.1109 3.88329 17.5727 4.68638 17.5727 5.60993C17.5727 6.53348 17.1109 7.35665 16.1271 7.35665H1.69165ZM16.1874 14.1628C16.1874 17.5358 13.4971 19.6238 9.12023 19.6238C4.74341 19.6238 2.05306 17.6161 2.05306 14.1628C2.05306 10.7095 4.74341 8.70182 9.12023 8.70182C13.4971 8.70182 16.1874 10.7898 16.1874 14.1628ZM7.35343 30.2245C5.34571 30.2245 4.62293 29.5821 4.62293 27.5543V22.5952C4.62293 21.4107 5.60671 20.8686 6.63065 20.8686C7.65458 20.8686 8.63837 21.4107 8.63837 22.5952V25.8678C8.63837 26.4299 8.83913 26.6106 9.38121 26.6106H22.7928C23.7766 26.6106 24.2383 27.4137 24.2383 28.3774C24.2383 29.3411 23.7766 30.1242 22.7928 30.1242L7.35343 30.2245ZM12.4932 14.1628C12.4932 12.8377 11.409 11.8539 9.12023 11.8539C6.83143 11.8539 5.74725 12.8377 5.74725 14.1628C5.74725 15.4879 6.83143 16.4717 9.12023 16.4717C11.409 16.4717 12.4932 15.4879 12.4932 14.1628ZM23.636 9.02304H26.6878C27.6916 9.02304 28.1333 9.82614 28.1333 10.7898C28.1333 11.7535 27.6916 12.5566 26.6878 12.5566H23.636V21.1296C23.6323 21.3806 23.5757 21.6281 23.4699 21.8558C23.3642 22.0836 23.2116 22.2864 23.0222 22.4512C22.8327 22.616 22.6107 22.7391 22.3705 22.8123C22.1304 22.8855 21.8775 22.9074 21.6283 22.8763C20.5642 22.8763 19.6206 22.3342 19.6206 21.1296V2.35742C19.6206 1.17287 20.6244 0.630786 21.6283 0.630786C21.8758 0.599872 22.127 0.621129 22.3658 0.693175C22.6046 0.76522 22.8257 0.886469 23.0149 1.04911C23.204 1.21175 23.357 1.41218 23.4639 1.63751C23.5709 1.86284 23.6295 2.10807 23.636 2.35742V9.02304Z" fill="#3F3F3F" stroke="#3F3F3F" stroke-width="0.2" stroke-miterlimit="10"/>
<path d="M37.9902 18.3792V16.3715H27.8111C26.8876 16.3715 26.4258 15.6286 26.4258 14.7051C26.4258 13.7815 26.8876 13.0587 27.8111 13.0587H52.2249C53.1685 13.0587 53.6103 13.8016 53.6103 14.7051C53.6103 15.6085 53.1685 16.3715 52.2249 16.3715H42.0458V18.3792H47.3863C49.3941 18.3792 50.1168 19.0217 50.1168 21.0294V23.3784C50.1168 25.3861 49.4342 26.0487 47.3863 26.0487H34.3362C34.2706 26.0384 34.2034 26.0437 34.1403 26.0643C34.0771 26.0849 34.0197 26.1201 33.9727 26.1671C33.9258 26.214 33.8906 26.2714 33.87 26.3346C33.8494 26.3978 33.844 26.4649 33.8543 26.5305V27.1128C33.844 27.1784 33.8494 27.2455 33.87 27.3087C33.8906 27.3718 33.9258 27.4292 33.9727 27.4762C34.0197 27.5232 34.0771 27.5584 34.1403 27.579C34.2034 27.5995 34.2706 27.6049 34.3362 27.5946H49.4342C49.6273 27.6013 49.8168 27.6484 49.9906 27.7327C50.1644 27.817 50.3187 27.9368 50.4434 28.0843C50.5682 28.2317 50.6608 28.4037 50.7152 28.589C50.7696 28.7744 50.7846 28.9691 50.7593 29.1606C50.7593 30.0039 50.3377 30.7467 49.4342 30.7467H32.5694C30.5617 30.7467 29.8389 30.1043 29.8389 28.0765V25.7074C29.8389 23.6996 30.5215 23.0371 32.5694 23.0371H45.6195C45.6852 23.0474 45.7523 23.042 45.8155 23.0215C45.8786 23.0009 45.936 22.9657 45.983 22.9187C46.03 22.8717 46.0652 22.8143 46.0858 22.7512C46.1063 22.688 46.1117 22.6209 46.1014 22.5553V22.0132C46.1109 21.9468 46.1051 21.8791 46.0846 21.8153C46.064 21.7515 46.0292 21.6932 45.9828 21.6448C45.9364 21.5964 45.8795 21.5592 45.8166 21.5361C45.7536 21.513 45.6863 21.5045 45.6195 21.5112H31.1038C30.2003 21.5112 29.7787 20.7885 29.7787 19.9452C29.7533 19.7537 29.7684 19.559 29.8227 19.3736C29.8771 19.1882 29.9697 19.0163 30.0945 18.8688C30.2193 18.7214 30.3736 18.6016 30.5474 18.5173C30.7212 18.433 30.9107 18.3859 31.1038 18.3792H37.9902ZM31.0636 4.62633C30.12 4.62633 29.6783 3.88347 29.6783 2.93984C29.6783 1.99622 30.12 1.3136 31.0636 1.3136H48.9925C49.916 1.3136 50.3778 2.05645 50.3778 2.93984C50.3778 3.82324 49.916 4.62633 48.9925 4.62633H42.106V4.84719C42.106 5.75066 42.7887 6.29274 44.7161 6.8549C46.6435 7.41706 48.5307 8.13984 50.2172 8.62169C50.4221 8.70001 50.6085 8.81996 50.7647 8.97398C50.9208 9.128 51.0433 9.31273 51.1244 9.5165C51.2056 9.72027 51.2436 9.93867 51.236 10.1579C51.2285 10.3771 51.1755 10.5923 51.0805 10.79C51.0066 11.0027 50.8908 11.1985 50.7399 11.3657C50.5891 11.5329 50.4063 11.6682 50.2023 11.7636C49.9984 11.8591 49.7774 11.9127 49.5523 11.9213C49.3273 11.93 49.1028 11.8935 48.8921 11.814C47.4867 11.4325 45.6396 10.8101 43.9331 10.2279C41.2026 9.3043 40.3392 8.66184 40.0582 7.89891C39.7972 8.72207 38.9138 9.40469 36.0427 10.3282C34.3362 10.9105 32.5091 11.5128 31.0837 11.9143C30.8718 11.9927 30.6462 12.0272 30.4206 12.0157C30.195 12.0043 29.974 11.947 29.7712 11.8475C29.5684 11.748 29.388 11.6082 29.2408 11.4368C29.0937 11.2654 28.9829 11.0658 28.9153 10.8503C28.8134 10.6492 28.7548 10.429 28.7436 10.2038C28.7323 9.97866 28.7686 9.75367 28.85 9.54346C28.9315 9.33325 29.0562 9.14253 29.2162 8.98372C29.3762 8.82491 29.5679 8.70156 29.7787 8.62169C31.4451 8.13984 33.1516 7.59776 35.2597 6.8549C37.3678 6.11205 37.8698 5.65027 37.8698 4.84719V4.62633H31.0636Z" fill="#3F3F3F" stroke="#3F3F3F" stroke-width="0.2" stroke-miterlimit="10"/>
<path d="M53.5312 11.7537V3.36142C53.5312 2.17686 54.5351 1.63478 55.539 1.63478C56.5428 1.63478 57.5467 2.17686 57.5467 3.36142V10.1676C57.5467 10.7297 57.7474 10.9104 58.2895 10.9104C61.6455 10.9367 64.9994 10.7354 68.3281 10.3081C69.332 10.1676 69.8941 10.8904 69.9945 11.8139C70.0949 12.7375 69.7737 13.6409 68.8501 13.8216C64.6591 14.3106 60.4406 14.5252 56.2216 14.4641C54.2139 14.4239 53.5312 13.7815 53.5312 11.7537ZM70.9181 22.3343C71.4802 22.3343 71.6609 22.1336 71.6609 21.5915V21.1297C71.6609 20.5876 71.4802 20.3869 70.9181 20.3869H58.0085C57.0849 20.3869 56.6633 19.6239 56.6633 18.7606C56.6633 17.8973 57.0849 17.1544 58.0085 17.1544H72.9459C74.9536 17.1544 75.6764 17.7969 75.6764 19.8247V22.776C75.6764 24.7838 75.0138 25.4463 72.9459 25.4463H61.4818C60.9397 25.4463 60.7389 25.627 60.7389 26.1892V26.6108C60.7389 27.1529 60.9397 27.3536 61.4818 27.3536H74.9737C75.9173 27.3536 76.3188 28.1166 76.3188 28.9799C76.3188 29.8432 75.9173 30.5861 74.9737 30.5861H59.454C57.4463 30.5861 56.7235 29.9436 56.7235 27.9359V24.9645C56.7235 22.9567 57.4061 22.3143 59.454 22.3143L70.9181 22.3343ZM78.7482 6.53361C79.7721 6.53361 80.2138 7.33669 80.2138 8.3004C80.2138 9.2641 79.7721 10.1073 78.7482 10.1073H75.7165V14.2432C75.7165 14.789 75.4997 15.3125 75.1138 15.6984C74.7278 16.0843 74.2044 16.3012 73.6586 16.3012C73.1128 16.3012 72.5894 16.0843 72.2035 15.6984C71.8175 15.3125 71.6007 14.789 71.6007 14.2432V2.37764C71.6007 1.19309 72.6046 0.651001 73.6084 0.651001C74.6123 0.651001 75.6161 1.19309 75.6161 2.37764V6.53361H78.7482Z" fill="#3F3F3F" stroke="#3F3F3F" stroke-width="0.2" stroke-miterlimit="10"/>
<path d="M87.5013 20.3266C86.9486 19.6174 86.4326 18.8802 85.9554 18.1181C85.3666 17.2506 84.9193 16.2951 84.6303 15.2872C84.4498 16.175 84.0875 17.0158 83.5662 17.7567C83.0241 18.6 82.4821 19.403 81.7392 20.427C81.5938 20.6107 81.4121 20.7626 81.2055 20.8731C80.9988 20.9835 80.7716 21.0502 80.5381 21.0691C80.3045 21.0879 80.0696 21.0585 79.8479 20.9825C79.6263 20.9066 79.4226 20.7858 79.2496 20.6278C79.058 20.4921 78.8954 20.3196 78.7712 20.1203C78.6471 19.921 78.5638 19.699 78.5265 19.4672C78.4891 19.2355 78.4982 18.9985 78.5535 18.7703C78.6087 18.5421 78.7089 18.3272 78.8481 18.1382C79.611 17.0942 80.4743 15.8092 81.1168 14.7652C82.2707 12.9765 82.8262 10.8672 82.7029 8.74207V3.8834C82.8349 3.48172 83.0904 3.13198 83.4329 2.88403C83.7754 2.63609 84.1874 2.50259 84.6102 2.50259C85.0331 2.50259 85.4451 2.63609 85.7876 2.88403C86.1301 3.13198 86.3855 3.48172 86.5176 3.8834V8.74207C86.451 10.3399 86.7461 11.9321 87.3809 13.4C87.6206 13.962 87.8886 14.5115 88.184 15.0463C88.6457 15.8092 88.8465 15.8092 89.2882 15.0463C89.5836 14.5115 89.8516 13.962 90.0913 13.4C90.7261 11.9321 91.0212 10.3399 90.9546 8.74207V3.8834C91.0817 3.47423 91.3363 3.11644 91.6813 2.86234C92.0263 2.60825 92.4435 2.47119 92.872 2.47119C93.3005 2.47119 93.7177 2.60825 94.0626 2.86234C94.4076 3.11644 94.6623 3.47423 94.7894 3.8834V8.74207C94.6725 10.8638 95.2199 12.9691 96.3554 14.7652C96.9979 15.8092 97.8612 17.0942 98.5438 18.0177C98.6773 18.2025 98.7724 18.4122 98.8236 18.6344C98.8747 18.8566 98.8808 19.0868 98.8415 19.3114C98.8022 19.5359 98.7183 19.7504 98.5948 19.942C98.4712 20.1336 98.3105 20.2985 98.1222 20.427C97.9509 20.5846 97.7489 20.705 97.5288 20.7807C97.3088 20.8564 97.0755 20.8858 96.8435 20.867C96.6115 20.8481 96.386 20.7814 96.181 20.6712C95.9761 20.5609 95.7962 20.4094 95.6527 20.2262C95.0102 19.3428 94.4681 18.5397 93.906 17.6965C93.3938 16.975 93.0381 16.1543 92.8619 15.2872C92.573 16.2951 92.1257 17.2506 91.5368 18.1181C91.0665 18.8848 90.5503 19.6223 89.9909 20.3266C89.8771 20.5597 89.7 20.7562 89.4799 20.8937C89.2599 21.0311 89.0056 21.1039 88.7461 21.1039C88.4867 21.1039 88.2324 21.0311 88.0123 20.8937C87.7923 20.7562 87.6152 20.5597 87.5013 20.3266Z" fill="#3F3F3F" stroke="#3F3F3F" stroke-width="0.2" stroke-miterlimit="10"/>
</g>
<path d="M100.944 2.6224C103.861 3.91407 109.245 6.03358 106.999 7.02792C106.999 7.02792 99.5735 7.38649 100.419 9.53352C101.264 11.6806 107.416 12.4983 103.199 14.8871C98.9814 17.2759 104.955 17.2318 103.199 21.8348C102.314 24.1535 102.838 24.4101 103.199 28.8674" stroke="#3F3F3F" stroke-width="3" stroke-linecap="round"/>
<defs>
<clipPath id="clip0_674_8210">
<rect width="99.1009" height="30.6779" fill="white" transform="translate(0.00390625 0.309814)"/>
</clipPath>
</defs>
</svg>
