<svg width="42" height="42" viewBox="0 0 42 42" fill="none" xmlns="http://www.w3.org/2000/svg">
<path d="M20.8971 4.3205C15.7613 3.46436 12.4129 7.37811 11.3807 9.442C1.86439 6.76658 -0.542348 21.4913 8.28415 22.0547C14.4738 22.4497 23.5405 22.0547 29.3561 22.0547C31.4254 22.0547 33.383 20.7111 33.8877 18.5707C35.1565 13.1893 30.8414 11.7862 28.5253 11.5059C28.1225 9.46749 26.0329 5.17663 20.8971 4.3205Z" fill="#989898"/>
<path d="M10.1516 27.0234C10.1516 28.295 9.13301 29.3258 7.87656 29.3258C6.62011 29.3258 5.60156 28.295 5.60156 27.0234C5.60156 25.7518 7.87656 21.9758 7.87656 21.9758C7.87656 21.9758 10.1516 25.7518 10.1516 27.0234Z" fill="#68BFEF"/>
<path d="M15.7492 36.8235C15.7492 38.0951 14.7307 39.1259 13.4742 39.1259C12.2178 39.1259 11.1992 38.0951 11.1992 36.8235C11.1992 35.5519 13.4742 31.7759 13.4742 31.7759C13.4742 31.7759 15.7492 35.5519 15.7492 36.8235Z" fill="#68BFEF"/>
<path d="M21.6984 27.0234C21.6984 28.295 20.6799 29.3258 19.4234 29.3258C18.167 29.3258 17.1484 28.295 17.1484 27.0234C17.1484 25.7518 19.4234 21.9758 19.4234 21.9758C19.4234 21.9758 21.6984 25.7518 21.6984 27.0234Z" fill="#68BFEF"/>
<path d="M26.6008 36.8235C26.6008 38.0951 25.5822 39.1259 24.3258 39.1259C23.0693 39.1259 22.0508 38.0951 22.0508 36.8235C22.0508 35.5519 24.3258 31.7759 24.3258 31.7759C24.3258 31.7759 26.6008 35.5519 26.6008 36.8235Z" fill="#68BFEF"/>
<path d="M33.2492 27.0234C33.2492 28.295 32.2307 29.3258 30.9742 29.3258C29.7178 29.3258 28.6992 28.295 28.6992 27.0234C28.6992 25.7518 30.9742 21.9758 30.9742 21.9758C30.9742 21.9758 33.2492 25.7518 33.2492 27.0234Z" fill="#68BFEF"/>
<path d="M37.8 36.8235C37.8 38.0951 36.7814 39.1259 35.525 39.1259C34.2686 39.1259 33.25 38.0951 33.25 36.8235C33.25 35.5519 35.525 31.7759 35.525 31.7759C35.525 31.7759 37.8 35.5519 37.8 36.8235Z" fill="#68BFEF"/>
</svg>
