<svg width="23" height="24" viewBox="0 0 23 24" fill="none" xmlns="http://www.w3.org/2000/svg">
<path d="M13.5003 5.38357C11.0152 2.89852 6.98515 2.89852 4.5001 5.38357C2.01505 7.86862 2.01505 11.8987 4.5001 14.3838C6.70153 16.5852 10.1158 16.8337 12.5927 15.1347L15.6909 18.6002C16.2176 19.1918 17.1333 19.2161 17.6925 18.657L17.7735 18.5759C18.3326 18.0168 18.3083 17.1011 17.7168 16.5744L14.2512 13.4762C15.9529 10.9965 15.7017 7.585 13.5003 5.38357ZM11.9552 12.8387C10.3238 14.4702 7.67664 14.4702 6.04515 12.8387C4.41366 11.2072 4.41366 8.56011 6.04515 6.92862C7.67664 5.29713 10.3238 5.29713 11.9552 6.92862C13.5894 8.56281 13.5867 11.2072 11.9552 12.8387Z" fill="#DBDBDB"/>
</svg>
