<svg width="90" height="90" viewBox="0 0 90 90" fill="none" xmlns="http://www.w3.org/2000/svg">
<g clip-path="url(#clip0_361_4685)">
<path d="M47.8125 30.9375C47.8125 30.1916 47.5162 29.4762 46.9887 28.9488C46.4613 28.4213 45.7459 28.125 45 28.125C44.2541 28.125 43.5387 28.4213 43.0113 28.9488C42.4838 29.4762 42.1875 30.1916 42.1875 30.9375V49.8488L34.1494 63.2362C33.7652 63.8762 33.6511 64.6426 33.832 65.3668C34.0129 66.091 34.4741 66.7137 35.1141 67.0978C35.7541 67.482 36.5205 67.5961 37.2446 67.4152C37.9688 67.2343 38.5915 66.7731 38.9756 66.1331L47.4131 52.0706C47.6747 51.6338 47.8127 51.1341 47.8125 50.625V30.9375Z" fill="#5D9EFF"/>
<path d="M36.5625 0C35.8166 0 35.1012 0.296316 34.5738 0.823762C34.0463 1.35121 33.75 2.06658 33.75 2.8125C33.75 3.55842 34.0463 4.27379 34.5738 4.80124C35.1012 5.32868 35.8166 5.625 36.5625 5.625H39.375V11.6437C31.7153 12.7504 24.5514 16.0894 18.7784 21.2438C13.0053 26.3981 8.87894 33.1393 6.91477 40.6251C4.95059 48.111 5.23567 56.0096 7.73441 63.3344C10.2331 70.6591 14.8347 77.0852 20.9644 81.81L17.5781 85.1963C17.05 85.7236 16.753 86.4392 16.7525 87.1855C16.752 87.9318 17.0479 88.6478 17.5753 89.1759C18.1027 89.7041 18.8182 90.001 19.5646 90.0016C20.3109 90.0021 21.0269 89.7061 21.555 89.1787L25.7513 84.9825C31.6295 88.282 38.2591 90.0101 45 90C51.7409 90.0101 58.3705 88.282 64.2487 84.9825L68.445 89.1787C68.9731 89.7061 69.6891 90.0021 70.4354 90.0016C71.1818 90.001 71.8973 89.7041 72.4247 89.1759C72.952 88.6478 73.248 87.9318 73.2475 87.1855C73.247 86.4392 72.95 85.7236 72.4219 85.1963L69.0413 81.81C75.171 77.0849 79.7725 70.6583 82.271 63.3331C84.7694 56.0079 85.054 48.1089 83.0892 40.6229C81.1244 33.137 76.9973 26.3959 71.2235 21.2419C65.4497 16.0879 58.2852 12.7495 50.625 11.6437V5.625H53.4375C54.1834 5.625 54.8988 5.32868 55.4262 4.80124C55.9537 4.27379 56.25 3.55842 56.25 2.8125C56.25 2.06658 55.9537 1.35121 55.4262 0.823762C54.8988 0.296316 54.1834 0 53.4375 0L36.5625 0ZM42.4012 16.9762C44.1313 16.8447 45.8687 16.8447 47.5988 16.9762C56.2988 17.6481 64.4004 21.6635 70.2038 28.1799C76.0071 34.6962 79.0611 43.207 78.7249 51.9264C78.3887 60.6458 74.6885 68.8962 68.4006 74.9463C62.1127 80.9964 53.7259 84.3761 45 84.3761C36.2741 84.3761 27.8873 80.9964 21.5994 74.9463C15.3115 68.8962 11.6113 60.6458 11.2751 51.9264C10.9389 43.207 13.9928 34.6962 19.7962 28.1799C25.5996 21.6635 33.7012 17.6481 42.4012 16.9762ZM1.42474e-08 19.6875C1.42474e-08 23.9231 1.87313 27.7256 4.8375 30.3019C9.17857 21.7516 16.1266 14.8036 24.6769 10.4625C22.7974 8.29986 20.3022 6.76291 17.5253 6.05738C14.7483 5.35184 11.8221 5.5114 9.13832 6.51469C6.45453 7.51797 4.14124 9.31711 2.5081 11.6713C0.874947 14.0254 -0.000128927 16.8223 1.42474e-08 19.6875ZM75.9375 5.625C71.7019 5.625 67.8994 7.49812 65.3231 10.4625C73.8734 14.8036 80.8214 21.7516 85.1625 30.3019C87.3251 28.4224 88.8621 25.9272 89.5676 23.1503C90.2731 20.3733 90.1136 17.4471 89.1103 14.7633C88.107 12.0795 86.3079 9.76624 83.9537 8.1331C81.5995 6.49995 78.8027 5.62487 75.9375 5.625Z" fill="#5D9EFF"/>
</g>
<defs>
<clipPath id="clip0_361_4685">
<rect width="90" height="90" fill="white"/>
</clipPath>
</defs>
</svg>
