<svg width="90" height="90" viewBox="0 0 90 90" fill="none" xmlns="http://www.w3.org/2000/svg">
<path d="M45 84.375C34.5571 84.375 24.5419 80.2266 17.1577 72.8423C9.77343 65.4581 5.625 55.4429 5.625 45C5.625 34.5571 9.77343 24.5419 17.1577 17.1577C24.5419 9.77343 34.5571 5.625 45 5.625C55.4429 5.625 65.4581 9.77343 72.8423 17.1577C80.2266 24.5419 84.375 34.5571 84.375 45C84.375 55.4429 80.2266 65.4581 72.8423 72.8423C65.4581 80.2266 55.4429 84.375 45 84.375ZM45 90C56.9347 90 68.3807 85.2589 76.8198 76.8198C85.2589 68.3807 90 56.9347 90 45C90 33.0653 85.2589 21.6193 76.8198 13.1802C68.3807 4.74106 56.9347 0 45 0C33.0653 0 21.6193 4.74106 13.1802 13.1802C4.74106 21.6193 0 33.0653 0 45C0 56.9347 4.74106 68.3807 13.1802 76.8198C21.6193 85.2589 33.0653 90 45 90Z" fill="#5D9EFF"/>
<path d="M61.7062 27.9562C61.6661 27.9951 61.6286 28.0364 61.5937 28.08L42.0581 52.9706L30.285 41.1919C29.4852 40.4467 28.4275 40.041 27.3345 40.0603C26.2416 40.0795 25.1988 40.5223 24.4258 41.2952C23.6529 42.0682 23.2101 43.111 23.1908 44.2039C23.1716 45.2969 23.5773 46.3546 24.3225 47.1544L39.2062 62.0437C39.6072 62.444 40.0846 62.7593 40.6101 62.971C41.1356 63.1827 41.6983 63.2864 42.2648 63.2759C42.8312 63.2654 43.3897 63.141 43.907 62.9099C44.4243 62.6789 44.8897 62.3461 45.2756 61.9312L67.7306 33.8625C68.4952 33.06 68.9132 31.9888 68.8943 30.8805C68.8755 29.7722 68.4211 28.7159 67.6296 27.9399C66.8381 27.1639 65.773 26.7306 64.6646 26.7337C63.5561 26.7367 62.4934 27.1759 61.7062 27.9562Z" fill="#5D9EFF"/>
</svg>
