<svg width="15" height="15" viewBox="0 0 15 15" fill="none" xmlns="http://www.w3.org/2000/svg">
<path fill-rule="evenodd" clip-rule="evenodd" d="M1.70711 0.292893C1.31658 -0.0976311 0.683417 -0.0976311 0.292893 0.292893C-0.0976311 0.683417 -0.0976311 1.31658 0.292893 1.70711L6.0072 7.42142L0.292921 13.1357C-0.0976043 13.5262 -0.0976044 14.1594 0.29292 14.5499C0.683444 14.9404 1.31661 14.9404 1.70713 14.5499L7.42142 8.83563L13.1357 14.5499C13.5262 14.9404 14.1594 14.9404 14.5499 14.5499C14.9404 14.1594 14.9404 13.5262 14.5499 13.1357L8.83563 7.42142L14.5499 1.70711C14.9405 1.31658 14.9405 0.683418 14.5499 0.292893C14.1594 -0.0976311 13.5263 -0.0976311 13.1357 0.292893L7.42142 6.0072L1.70711 0.292893Z" fill="#A8A8A8"/>
</svg>
