<svg width="90" height="90" viewBox="0 0 90 90" fill="none" xmlns="http://www.w3.org/2000/svg">
<path d="M61.875 33.75C61.875 38.2255 60.0971 42.5178 56.9324 45.6824C53.7678 48.8471 49.4755 50.625 45 50.625C40.5245 50.625 36.2323 48.8471 33.0676 45.6824C29.9029 42.5178 28.125 38.2255 28.125 33.75C28.125 29.2745 29.9029 24.9823 33.0676 21.8176C36.2323 18.6529 40.5245 16.875 45 16.875C49.4755 16.875 53.7678 18.6529 56.9324 21.8176C60.0971 24.9823 61.875 29.2745 61.875 33.75Z" fill="#5D9EFF"/>
<path fill-rule="evenodd" clip-rule="evenodd" d="M0 45C0 33.0653 4.74106 21.6193 13.1802 13.1802C21.6193 4.74106 33.0653 0 45 0C56.9347 0 68.3807 4.74106 76.8198 13.1802C85.2589 21.6193 90 33.0653 90 45C90 56.9347 85.2589 68.3807 76.8198 76.8198C68.3807 85.2589 56.9347 90 45 90C33.0653 90 21.6193 85.2589 13.1802 76.8198C4.74106 68.3807 0 56.9347 0 45ZM45 5.625C37.585 5.62539 30.3208 7.71954 24.0435 11.6664C17.7662 15.6133 12.731 21.2524 9.5173 27.9348C6.30363 34.6172 5.04217 42.0713 5.87812 49.439C6.71406 56.8067 9.61342 63.7887 14.2425 69.5813C18.2362 63.1462 27.0281 56.25 45 56.25C62.9719 56.25 71.7581 63.1406 75.7575 69.5813C80.3866 63.7887 83.2859 56.8067 84.1219 49.439C84.9578 42.0713 83.6964 34.6172 80.4827 27.9348C77.269 21.2524 72.2338 15.6133 65.9565 11.6664C59.6792 7.71954 52.415 5.62539 45 5.625Z" fill="#5D9EFF"/>
</svg>
